<svg xmlns="http://www.w3.org/2000/svg" viewBox="0 0 1266.674 1645.311" fill="#0f0"><path d="M389.498 697.927c-.424 133.461 1.24 119.092-1.916 122.097-13.439 10.115-11.081 30.311 1.638 37.646.242 3.311.125 83.143.046 95.141-4.86 2.979-8.356 7.868-9.97 13.304-7.089 29.539 34.287 40.666 43.9 14.122 3.543-12.951-1.449-22.63-9.378-27.432l-.006-92.266 99.473 59.713c.348 8.101 4.785 16.283 12.253 19.854.368 1.568.446-2.393.445 35.126a124.15 124.15 0 0 1 24.155-30.103c.05-3.72.124-6.011.231-6.864 19.807-13.44 4.532-45.823-16.921-41.078-11.194 1.487 8.931 13.848-108.909-58.517-.401-16.557-10.721-16.934-10.952-22.235 0-139.604-1.502-120.018 4.076-125.685 4.413-4.361 6.997-10.534 6.899-16.747l68.121-36.043H441c-16.791 8.471-30.454 14.82-32.596 14.227-6.007-2.143-12.125-1.012-17.99 1.62-.367.253-12.11-6.527-27.88-15.847h-47.189l62.061 37.246c.961 16.013 11.476 16.937 12.092 22.721zm137.717 218.306c.017-.134.041-.412.058-.546l.662-1.353.354-.076.441-.883c1.713-1.756 2.723-2.205 3.444-2.613 2.587-.518.241-.869 7.119-.575 3.866 1.869 1.645.824 4.187 2.456v.453l.505-.035c1.485 2.425 1.455 2.221 2.427 4.802-.029 1.789.412 3.775-.546 5.412l.046.604c-2.51 3.925-1.873 2.621-3.786 4.495-1.098.586-2.259 1.045-3.409 1.516-1.626.116-3.252.093-4.872-.012-.737-.395-1.481-.778-2.207-1.138l-.79.035-.035-.691-.697.122.122-.505a50.45 50.45 0 0 1-.825-.708l-.494.105.099-.679-.662.041.139-.685-.714-.006.029-.766c-1.733-2.482-1.71-6.088-.595-8.77zM410.426 977.31c-5.275 7.335-13.025 6.455-17.839-.029a27.36 27.36 0 0 1-.099-.633l-.987-2.265c-.686-5.662 1.936-9.684 5.888-11.306 5.268-2.606 17.409.357 13.037 14.233zm-14.094-311.409c2.125-1.277 4.709-.935 7.067-.755 1.376.627 2.323.925 4.198 2.468v.43h.465c4.696 6.82 3.389 12.421-4.762 16.103-3.492.235-4.622.021-7.009-1.521l-.767-.064-.017-.65-.674.099.058-.662-.674.087.047-.436-.708-.772-.244-.099c-.785-1.352-1.37-2.239-1.516-3.972l-.366.006c-.101-2.583-.196-7.804 4.902-10.262zm-5.476 170.515h.354c.292-2.057.563-2.352 1.516-3.978l.25-.093.714-.772-.052-.447.441.052c.197-.174.586-.534.778-.714l.093-.25c1.385-.787 2.277-1.375 3.972-1.504v-.36h4.082v.36c1.777-.006 3.205 1.08 4.599 2.044l.017.476.662-.099-.047.436c.174.197.534.586.714.784l.244.081c1.023 1.817 1.117 1.658 1.51 3.984l.36-.006v4.071l-.447.006-.093 1.591-1.829 3.002-.285.081c-.192.18-.563.546-.749.726l-.041.273a80.04 80.04 0 0 0-2.578 1.661 33.2 33.2 0 0 0-2.044.383l-.006.36-4.071-.006-.006-.354c-1.481-.046-2.735-.807-3.978-1.51l-.081-.25-.778-.714-.441.046.046-.441-.714-.778-.25-.081c-.697-1.254-1.475-2.509-1.504-3.983h-.36l.002-4.077zm22.659-612.243c19.048-10.945 8.041-48.332-20.8-40.347-1.092.47-2.166 1.034-3.345 1.219-.817-.282-31.934-18.901-61.193-36.456-5.699 5.948-11.204 12.055-16.484 18.341l65.129 39.072c.331 8.002 4.657 15.888 11.817 19.709.426 2.588.209-5.614.267 122.608.395 1.771-1.458 2.468-2.538 3.415-5.348 3.96-8.188 10.435-8.978 16.91-26.2 13.542-28.545 15.383-32.246 16.695-.707-176.42-.501-106.126 9.297-136.957 3.648-12.063-1.906-25.376-18.437-29.732-29.121-1.917-34.336 32.16-15.354 42.565.111.582 1.685 121.746-1.579 124.872-5.255 3.688-8.583 9.767-9.332 16.097-.014 1.901-34.708 19.298-35.289 19.587-12.113-5.112-27.346.682-31.357 16.608l-32.734 17.357-.014-41.815c-2.602 18.426-4.544 37.343-5.841 56.733 4.585 4.254 4.004 11.862-.888 15.27-1.454 29.582-1.48 60.202-.15 91.775h6.312v-79.613c4.586-3.402 11.013-8.397 11.492-20.777l30.382-15.946 1.521.761c.853 3.144.204-.39.419 115.575h24.126l.024-114.995c7.14-4.703 11.175-12.256 10.935-19.819l33.256-17.56 1.736.767-.029 102.812c-23.887 14.608-4.177 52.153 21.898 40.387 17.089-7.738 17.474-31.305 2.66-40.393l.047-106.743c4.39-3.711 7.067-9.152 7.81-14.813 10.836-5.958 21.857-11.573 32.769-17.392 3.391 1.865 6.703 2.895 9.858 3.246a349.35 349.35 0 0 1 4-13.262c-8.221 1.225-17.001-10.809-8.109-17.643 3.664-3.182 9.5-2.776 13.054.377l.128.285c.242.24.452.502.661.765a296.76 296.76 0 0 1 5.901-14.269c-2.361-15.967-1.366-123.725-.802-125.276zM275.763 445.046l-.36-.006c-.046 1.475-.801 2.735-1.498 3.984l-.256.075-.714.79.046.436-.441-.052-.772.72-.116.215c-.447.29-.906.563-1.376.813l-.494.064c-.616.43-1.307.65-2.079.662l-.012.36h-4.071l-.012-.343c-1.005-.186-1.974-.447-2.927-.796l-.07-.575-.97.081-.046-.482-.796-.714-.453.035.07-.65-.441-.052c-.705-1.157-1.772-1.752-2.067-4.57l-.36.006c-.122-2.241-.012-4.529 1.039-6.556l.023-.459.656-.076c-.017-.244-.064-.732-.087-.976l.691-.017-.099-.674.662.064-.099-.674.441.046c.197-.174.586-.534.778-.708l.087-.244c1.043-.617 2.108-1.327 3.972-1.521l.006-.354h4.076l.006.343c.993.163 1.98.447 2.932.79l.07.581.97-.087.017.691.674-.099-.058.662.668-.093-.041.435c.174.198.534.587.708.778l.244.093c.846 1.438 1.343 2.23 1.516 3.972l.36-.006.003 4.088zm46.566-201.501c-.008-1.801-.649-7.599 5.348-10.377 1.806-.679 3.728-.685 5.627-.615l.012.36c1.693.213 2.002.536 3.972 1.452l.023.511.674-.104-.058.668.668-.093-.041.435a48.04 48.04 0 0 0 .714.784l.453.058-.035 1.01.563.046c.377.947.616 1.928.784 2.938h.354c.453 7.425-3.046 11.183-10.987 10.987l-.006-.349c-1.01-.163-1.992-.406-2.938-.784l-.046-.563a56.43 56.43 0 0 0-1.01.041l-.023-.691-.662.128.029-.436c-.186-.186-.569-.552-.761-.737l-.227-.064c-.476-.732-.981-1.428-1.481-2.131-.29-.801-.447-1.649-.586-2.479l-.36.005zm4.012 153.843c3.6-3.403 9.669-3.165 13.286.099 6.673 6.609.852 21.172-11.329 16.08-7.479-5.569-5.683-13.071-1.957-16.179zm18.6 155.394l-.017.546c-6.073 7.766-13.394 6.186-17.961.041l-.093-.616c-1.182-2.274-1.193-3.986-.952-6.388.395-.993.796-1.974 1.109-2.985 1.283-1.8 2.869-3.496 4.971-4.32 7.698-3.479 17.18 4.277 12.943 13.722zm64.544-342.987l-.743.203.168.772c-.784.935-1.614 1.818-2.462 2.683l-.087.499-.674.023c-1.034.772-2.247 1.202-3.444 1.649-1.626.145-3.258.104-4.878 0-.726-.406-1.469-.766-2.195-1.138l-.784.035-.035-.691-.697.122.116-.511-.813-.708-.494.116.093-.679-.662.035.145-.685-.732-.006.134-.993-.592-.145c-.9-2.648-1.33-5.83-.093-8.397l.046-.54.685-1.359.337-.087.43-.865c1.809-1.809 2.702-2.207 3.455-2.619 2.519-.504.483-.913 7.102-.557 4.045 1.923.53.06 4.204 2.439v.453l.505-.035c1.271 2.066 1.568 2.429 2.422 4.785-.041 1.789.459 3.792-.552 5.395l.095.806zm-57.094 1312.938c-1.003-3.082 9.598 2.859-73.214-45.648-2.344-2.149-1.254-80.279-1.098-80.92 6.394-4.591 10.692-10.125 11.155-19.5l123.734-74.34c.446-120.79-1.15-108.097 1.899-110.332 6.312-3.444 10.749-10.145 11.48-17.293.337-1.365-.174-3.351 1.434-3.978l104.66-62.745c-4.659-6.568-8.686-13.615-12.007-21.046l-105.665 63.356.319-74.933c13.429-9.093 13.014-31.605-4.146-39.661-28.282-11.549-45.385 27.633-20.336 41.415l.035 73.092-110.018-66.002c0-104.63-1.019-92.78 2.375-95.948 11.847-10.088 9.392-31.619-6.753-38.21-27.003-11.082-45.073 29.251-20.197 41.165.967 2.923.134.415.505 106.72 2.686 1.856 105.523 63.385 123.194 73.893 1.932 12.07 6.704 17.354 11.469 19.436-.784.087-1.562.192-2.334.319l.017 97.028c-124.121 74.86-110.373 67.168-114.652 65.891-21.873-9.176-46.314 19.831-20.882 41.479.376 10.99-.364 89.608.476 92.057 1.915 5.708 69.931 42.865 74.474 46.624l.055 88.001h24.394l-.373-99.92zm-76.75-545.342l-.47.041.076.674-.453-.035-.726.737-.058.267c-3.681 2.275-.041.314-4.878 2.346-1.156.052-2.311.052-3.461.006-.993-.412-1.969-.796-2.973-1.132-.639-.436-1.272-.819-1.91-1.219l-.052-.267-.726-.737-.447.035.07-.674-.494-.017c-.803-1.679-1.121-2.476-1.8-4.187-.215-2.166-.017-4.384.993-6.335l-.023-.436.65-.087-.023-.83c1.891-1.953 2.007-2.186 3.972-3.298 5.004-2.633 9.222-.609 12.955 3.287l-.012.854.645.075-.029.436c2.326 5.13.419 7.913-.826 10.496zm135.493 199.986l-.017.482-.592.017.058.633-.412-.023-.778.708-.017.406-.639-.052-.11.441c-.999.395-1.992.801-2.95 1.289-13.081 1.926-16.308-13.506-6.515-18.402 5.158-2.173 10.529-.736 13.635 5.894.83 6.001-.962 7.631-1.663 8.607zm-19.697-123.781l.343-.012c.163-1.022.441-1.98.79-2.927l.586-.07-.093-.97.691-.017-.104-.674.662.064-.087-.674.435.046.772-.714.081-.279c1.572-.656 1.579-1.171 3.989-1.487l.006-.354h4.065v.354c2.027.234 2.252.673 3.995 1.492l.046.505.662-.134-.041.43a45.5 45.5 0 0 1 .761.761l.43-.035-.134.656.488.052c.691 1.243 1.469 2.491 1.504 3.984l.36-.006v4.071l-.36.012c-.006.766-.221 1.463-.65 2.091l-.081.488c-.255.459-.523.923-.801 1.382l-.226.105c-.174.197-.534.586-.714.778l.052.441-.441-.046-.778.714-.099.226a38.82 38.82 0 0 0-1.388.801l-.494.058c-.616.43-1.307.65-2.079.668l-.012.36-4.071-.006-.006-.348c-2.035-.269-2.94-.914-3.972-1.516l-.081-.244-.784-.714-.43.046.081-.65-.488-.047c-.674-1.005-1.312-2.044-1.887-3.089l.006-.662c-.887-1.466-.399-3.301-.504-4.91zm-134.402 327.087c-2.316-4.644-.819-11.362 6.173-14.047 5.859-.512 10.03.271 12.444 7.787 1.755 11.225-13.753 16-18.617 6.26zM220.053 360.69l-1.87 8.517a27.05 27.05 0 0 0 1.809-5.697l.061-2.82zm35.461 382.909c-2.586 1.045-.988 11.286-1.55 91.332-13.207 8.214-14.294 27.052-2.915 36.74 24.045 22.054 55.552-19.291 27.467-36.746-.116-5.394-.111-66.114-.023-76.663.435-.381 42.575-25.233 43.053-25.516 1.53-1.094 1.65.273 8.635 1.754 27.463 4.31 36.884-36.202 9.872-46.618-12.698-2.638-14.571.593-18.031 1.208-.965-.304-52.762-31.375-85.647-51.13h-47.096l120.363 72.151c-.849 3.034 6.825-2.873-54.128 33.488zm1.829 115.824c-2.705-7.799.122-12.524 5.853-14.755 4.518-1.144 9.558.627 11.91 4.75 5.252 13.131-10.137 20.592-17.763 10.005zm66.693-152.205l.726-1.365.505-.023-.151-.679.668.041-.099-.679.47.099.801-.749.041-.557.952.151.07-.743.674.232.012-.459a70.31 70.31 0 0 1 1.916-.703c10.44-1.281 13.567 6.956 11.422 11.254.017.203.064.598.081.801l-.737.197.157.784c-.778.923-1.603 1.806-2.451 2.671l-.099.296c-1.324.732-2.7 1.336-4.1 1.893-1.632.116-3.269.093-4.895 0-.726-.418-1.469-.778-2.183-1.156l-.79.041-.035-.685-.691.116.099-.476-.825-.708-.418.058-.058-.447c-3.347-3.736-1.186-8.513-1.062-9.205zm163.628-505.245c14.705-8.24 15.329-33.54-4.28-41.16-11.844-3.378-15.634.714-18.541.981-.912-.244-58.207-34.632-90.561-54.075-6.93 5.21-13.624 10.614-20.097 16.197l98.121 58.852c.389 7.381 3.937 14.924 10.453 18.757.888 2.61.308.986.443 75.103 7.507-7.581 15.553-14.603 24.146-21.06l.316-53.595zm-2.677-15.4l-.714.151.151 1.01-.732.11-.035.784c-2.312 1.891-1.205 1.95-5.917 3.775-1.632.128-3.263.104-4.889.006-.726-.406-1.469-.778-2.189-1.156l-.784.041-.035-.685-.697.116.122-.523-.807-.697-.499.116.087-.679-.668.029.145-.679-.714-.006.029-.761c-2.684-3.971-.635-8.51-.534-9.349l.708-1.341.302-.058.436-.883c1.835-1.835 2.683-2.185 3.449-2.619l.592-.11c2.021-.981 4.355-.546 6.521-.453 4.082 1.991 1.531.759 4.198 2.451l-.006.453.499-.029c2.184 3.502 1.638 2.755 2.416 4.791-.035 1.783.482 3.792-.546 5.389l.111.806zm371.487 555.992c.919 15.075 13.024 23.525 24.662 22.839 33.188-5.946 25.879-50.24-6.991-45.579-7.05 2.432 8.078 10.267-117.352-65.334l.001-16.532H732.69l.034 30.254c8.129 5.162 77.733 46.615 123.75 74.352zm13.925-4.019l.064-.575.714-1.347.302-.064c.104-.221.325-.656.43-.877 1.706-1.735 2.772-2.239 3.455-2.613 5.831-1.167 6.623-.751 8.972.18l.064.279 1.707.796-.029.36.801.697.29-.006c2.127 3.371 1.682 2.887 2.427 4.814-.035 1.771.441 3.751-.534 5.36v.65c-3.826 7.15-9.092 6.092-12.049 5.987-.732-.406-1.475-.778-2.189-1.138l-.784.035-.035-.691-.697.122.122-.511c-.209-.174-.615-.528-.819-.703l-.494.11.093-.679-.662.035.139-.685-.732-.012.145-.987-.581-.122c-.904-2.654-1.345-5.831-.12-8.415zM730.242 227.39l5.45 2.395a243.57 243.57 0 0 1 18.871 9.614l-.094-81.048c125.178-75.472 110.738-67.582 115.517-65.955.307.091.608.165.911.245a415.07 415.07 0 0 0-27.019-16.187L730.392 144.63l-.15 82.76zm-157.146-49.26c.897 14.712 9.734 20.011 22.397 22.897 31.161-2.14 31.043-41.631 3.444-46.171-26.697-3.117 24.3 25.57-125.523-64.806V52.656c-8.244 3.292-16.299 6.742-24.126 10.382l.056 40.74c8.102 5.129 79.999 47.979 123.752 74.352zm13.936-4.019a16.89 16.89 0 0 0 .052-.552l.668-1.359.517-.075-.134-.662.436-.035 1.446-1.719.586.081.052-.436c3.73-1.93 4.687-1.464 8.438-1.283 3.939 1.855 1.902 1.031 4.198 2.439l.006.453.505-.006c2.143 3.45 1.632 2.716 2.41 4.791-.041 1.777.476 3.786-.557 5.377.035.197.093.598.128.801l-.714.139.122 1.022-.499.157c-.534.691-.981 1.44-1.545 2.108l-.464.058-.047.459c-1.324.726-2.706 1.336-4.1 1.899-1.637.116-3.275.093-4.901-.017-.732-.395-1.469-.772-2.189-1.138l-.784.035-.029-.685-.697.116.11-.517-.807-.703-.5.116.093-.679-.662.035.151-.679-.732-.012.116-.993-.581-.163c-.893-2.641-1.329-5.812-.092-8.373zm-3.275-122.497c-.534.621-1.301.964-1.939 1.434-17.3 11.139-10.625 39.985 10.749 43.041 23.795 4.513 36.64-28.68 15.836-42.797-.185-3.138-.222-25.095.017-28.355.788-.468 1.522-1.009 2.233-1.581a484.71 484.71 0 0 0-26.877 2.211c.187 5.461.122 24.547-.019 26.047zm20.638 16.718c.546 3.275.54.293.627 5.639l-.447-.006-.104 1.597a70.82 70.82 0 0 1-1.829 3.008l-.488.029.07.656-.453-.052-.772.714-.11.255-1.272.737-.604.139a3.46 3.46 0 0 1-2.062.633l-.006.36h-4.059l-.018-.349a52.89 52.89 0 0 0-2.05-.401c-14.465-8.355 6.073-27.888 13.577-12.959zm111.22-14.436c-5.867 3.572-10.323 10.456-10.702 18.112-35.759 21.091-31.26 18.542-34.087 17.682-25.389-10.516-43.322 27.65-20.342 40.852.252 3.634.217 48.466.151 77.687 8.178.572 16.332 1.552 24.432 2.936l.108-80.524c6.637-3.96 10.749-11.649 10.697-19.343 36.243-21.608 29.423-17.617 34.04-16.364 25.609 10.117 42.75-27.34 20.255-41.044l-.088-18.664c-8.103-2.051-16.233-3.85-24.39-5.384l-.074 24.054zm-61.774 62.25l-.07-.633c-.401-.627-.621-1.312-.65-2.067l-.36-.012c-.294-4.866.719-7.837 4.802-10.894 4.045-2.283 9.976-1.917 13.362 2.666l.366.104-.012.43c6.885 10.44-8.172 22.836-17.438 10.406zm63.969-45.027l.349-.046c.052-.743.273-1.423.668-2.05l.075-.627c4.834-6.9 13.192-6.848 17.978 0l.07.627c.383.621.61 1.307.674 2.05l.354.041c.023 1.452.017 2.903-.041 4.355-1.052 2.225-1.003 2.317-1.086 2.898-5.708 7.706-14.857 6.888-18.989-2.909-.104-1.447-.092-2.893-.052-4.339z"/><path d="M1081.214 1445.681l2.77-.517-2.398-.441c6.376-3.629 10.522-10.76 10.935-18.031.232-1.022.075-2.387 1.283-2.776 33.564-19.884 27.84-17.637 31.439-16.637 12.567 4.939 29.511-2.621 31.038-20.713l59.788-36.038.349-159.075c12.265-8.345 12.608-29.842-2.41-38.204-.316-2.558-.328-70.91.116-73.255 8.291-5.726 12.012-17.173 7.561-27.943a23.09 23.09 0 0 0-43.105 2.509c-3.476 11.297 2.336 22.696 10.621 26.718.625 1.786.475 68.201.476 70.084l-96.18-57.558c-5.255-20.629-11.839-16.607-14.506-20.469-.1-.581-.555-108.591.668-111.47-.273.029-.825.076-1.098.099 11.195-4.674 12.24-18.365 12.572-20.104 8.066-4.582 15.876-9.599 23.942-14.181 12.986 5.847 29.858-1.025 32.484-19.552l66.768-40.155.383-110.843c7.505-5.09 9.802-12.986 9.291-22.113-7.558-26.383-38.912-25.899-45.689-.012-1.169 11.236 3.952 19.475 11.91 23.884l.035 95.356-53.557 32.176.145-157.682c7.537-4.46 11.567-13.623 10.574-22.229l53.493-30.925c-6.54-5.923-13.624-11.254-21.163-15.921l-48.235 27.625c-5.069-1.185-10.51-1.301-15.429.587-23.681-14.876-68.187-40.344-85.005-49.916h-20.551c-.166.666-.408 1.301-.751 1.875l.093.807-.494.093c-.476.749-.917 1.533-1.498 2.212l-.447.058-.029.459c-1.708 1.064-2.838 2.884-9.221 2.445l-.035-.343c-.97-.25-1.887-.546-2.816-.859l-.105-.296c-1.365-.842-2.421-2.062-3.426-3.275l-.087-.668c-.36-.714-.703-1.423-1.028-2.12l-.028-.389h-11.935c1.124 13.015 12.475 25.271 30.162 20.388 1.765-.517 3.35-1.945 5.197-1.963 73.004 40.768 87.406 50.898 87.406 50.898-.639 8.385 3.374 17.142 10.696 21.48l.046 158.431c-8.097 4.958-10.721 12.567-10.778 20.33-23.328 14.088-22.343 13.767-23.623 13.124-10.677-4.36-15.312-1.537-20.696.099-1.52-.483-111.612-66.724-112.196-67.076l.006-120.488-1.545-.215c10.346-2.964 17.088-28.302-1.103-38.419-.281-2.461-.344-35.333-.221-56.588h-24.186l.024 54.66-91.154-54.66h-42.951l.011 2.375c8.174 5.189 77.587 46.526 123.758 74.358.313 8.432 5.191 16.724 12.961 20.307.56 4.679.116 58.352.325 132.387 65.37 40.42 121.815 70.926 123.525 76.164.494 8.089 5.575 15.94 13.083 19.175 1.081 3.914-.353 84.357.476 110.059-1.671 4.894-11.223 9.02-11.144 21.857-.581.362-34.882 21.526-37.379 21.84l.296-68.998c21.637-14.675 3.392-50.929-22.955-39.656-17.497 8.193-18.27 32.166-1.527 41.409.781 106.181.218 51.607-8.966 83.614-.104 1.388-.168 2.781-.203 4.193l-52.419 31.7-.041 183.116 122.521 74.735c.488 7.23 4.611 13.937 10.615 17.926l-.045 178.136h24.124l.392-176.975zm109.833-709.15h.354c.128-1.016.406-1.992.784-2.932l.552-.052c0-.255-.012-.755-.017-1.01l.447-.058.72-.784-.052-.447.441.052.778-.714.087-.244c.741-.406 1.233-.74 3.24-1.579 1.562-.401 3.194-.319 4.814-.29l.006.354c2.801.296 3.429 1.356 4.564 2.079l.099.226.732.738.244.093c.279.505.639.97 1.074 1.394.557.976.842 2.056.993 3.182h.36c.192 4.809-.617 5.959-2.387 8.67l-.488.035.081.65-.436-.046-.772.72-.093.261c-.668.308-1.313.662-1.928 1.034-.685.186-1.371.348-2.044.476l-.012.343h-4.071v-.36c-1.492-.041-2.741-.813-3.978-1.504l-.087-.255a40.61 40.61 0 0 1-.778-.714l-.441.052.099-.674-.668.058.104-.668-.488-.035c-1.507-2.957-1.984-3.556-1.833-8.051zm-71.832-35.875c4.589-2.57 11.005-1.549 13.849 3.397l.296.099c3.064 9.192-1.088 14.354-8.257 15.446-4.641-.545-6.58-1.271-9.605-5.348l-.064-.621a4.39 4.39 0 0 1-.662-2.056l-.354-.035c-.084-4.632.275-7.543 4.797-10.882zm-4.814 203.115h.337c.151-1.022.453-1.98.796-2.933l.581-.07-.081-.97.691-.029-.104-.674.436.023.755-.761-.017-.436.685.105.006-.697.976.099.081-.662.447-.006 1.742-.755c1.568-.412 3.194-.325 4.82-.296v.354c2.796.296 3.443 1.369 4.57 2.079l.052.441.65-.087-.041.459c.174.203.534.598.714.796l.488.046-.087.97.581.07c.354.952.592 1.911.79 2.933h.343v4.071l-.447.006-.093 1.591c-.598 1.01-1.208 2.021-1.847 3.008l-.482.035.081.656-.436-.052-.772.72-.11.226a20.27 20.27 0 0 0-1.376.807l-.488.058c-.627.43-1.324.65-2.096.668l-.006.354c-1.365 0-2.723-.006-4.071 0v-.36c-.894-.128-1.713-.273-2.491-.662l-.43-.041-.087-.65-.976.087-.017-.691-.674.105.064-.668-.674.099.046-.441-.714-.778-.238-.087c-.669-1.178-1.384-2.168-1.516-3.972h-.36l-.001-4.088zM935.983 723.134c-1.005.377-2.003.761-2.973 1.185-1.638.134-3.275.093-4.895.006-.726-.424-1.481-.772-2.183-1.156l-.79.041-.035-.691-.697.122.116-.517-.807-.703-.499.116.093-.679-.662.035.145-.679-.493-.023c-1.201-2.579-2.458-5.828-.79-9.518l.041-.575.726-1.347.308-.07.43-.865c1.769-1.829 2.847-2.28 3.444-2.625 2.231-.344-.037-.902 7.114-.557 4.125 1.994 1.009.396 4.198 2.445v.453l.505-.035c1.571 2.595 1.399 2.12 2.422 4.791.4 5.043-.613 7.668-4.718 10.846zm206.756 664.361l-.348.012c-.151.674-.29 1.365-.418 2.073-.494.679-.906 1.417-1.341 2.143l-.767.575.081.494-.656-.087-.023.494c-.871.511-1.701 1.074-2.543 1.632-.697.104-1.376.232-2.044.389l-.006.354a307.66 307.66 0 0 0-4.076 0v-.36c-.894-.139-1.707-.279-2.485-.656l-.436-.047-.087-.65-.976.081-.017-.691-.674.104.018-.435-.755-.761-.436.023.105-.674-.668-.017-.052-.761c-.772-.923-1.219-2.032-1.237-3.217h-.366v-4.088l.36.006c.017-1.492.801-2.741 1.504-3.984l.25-.075.714-.784-.046-.441.441.052.778-.72.093-.238c1.304-.742 2.255-1.417 3.972-1.516v-.36h4.082v.354c2.041.255 2.596.719 3.978 1.516l.052.482.656-.134-.035.424.761.761.424-.047-.128.662.505.058c.674 1.249 1.405 2.509 1.492 3.984h.354v4.07zm-8.925-120.883c-4.669-.549-6.592-1.298-9.611-5.348a25.57 25.57 0 0 0-.058-.621c-.389-.645-.61-1.33-.662-2.056l-.354-.035c-.043-3.938-.277-3.057 1.249-7.398l.343-.047.412-.923c.865-.923 1.794-1.783 2.816-2.532 14.448-7.986 22.969 16.29 5.865 18.96zm78.092-90.188c.029.203.081.616.104.825l-.72.145c.047.25.128.761.174 1.016l-.743.076-.017.83c-1.016.819-1.951 1.736-2.956 2.567-1.005.372-2.003.755-2.973 1.185-1.637.128-3.269.087-4.884.006-.737-.43-1.498-.784-2.201-1.156l-.784.047-.029-.691-.697.116.11-.517-.801-.708-.499.128.093-.685-.668.041.151-.679-.494-.035c-1.219-2.573-2.462-5.863-.79-9.518l.041-.546.673-1.353.349-.081.436-.877c1.725-1.769 2.731-2.204 3.449-2.619 2.158-.332.116-.945 7.102-.552l2.172.964c.627.534 1.365.941 2.027 1.498l.012.43.488-.012a16.67 16.67 0 0 1 2.427 4.773c-.053 1.77.476 3.78-.552 5.382zm-21.434-118.183l.36-.006c.127-1.837.916-2.938 1.516-3.972l.244-.087.703-.778-.035-.436.673.087-.064-.662.673.104.018-.691.97.093.064-.587c.953-.354 1.905-.645 2.938-.79l.006-.343h4.065l.012.354c1.734.222 2.121.528 3.972 1.469l.029.494.674-.099-.064.662.674-.099-.052.441.72.79.47.07-.058.999.569.041c.378.947.604 1.911.784 2.938h.348v4.071l-.354.012c-.259 1.906-.574 1.912-1.452 3.972l-.511.029.099.668-.447-.023-.726.761-.087.285a106.65 106.65 0 0 1-3.008 1.829l-1.579.105v.441l-4.077-.006-.006-.337c-1.034-.197-1.98-.441-2.932-.796l-.075-.575c-.238.017-.726.064-.97.087l-.012-.691-.673.105.058-.668-.668.093.047-.435-.714-.772-.279-.081c-.651-1.586-1.195-1.675-1.487-3.989l-.354-.012-.002-4.065zm-112.527 29.035l.453-.023-.11.679.697.006a53.74 53.74 0 0 0-.099.976l.587.07c.354.947.592 1.905.784 2.933h.348v4.076l-.36.006c-.222 1.888-.589 1.932-1.446 3.978l-.511.023.105.668-.453-.023-.743.749-.052.279c-.993.633-1.998 1.254-3.014 1.847l-1.597.105v.447c-4.431 0-3.862.002-7.003-1.179l-.075-.54-.97.087-.023-.697-.674.104.07-.662-.679.099.052-.441-.72-.778-.255-.087c-.697-1.249-1.446-2.514-1.504-3.972h-.354c-.016-4.606-.038-3.814 1.179-7.009l.54-.087-.093-.964.691-.017-.099-.674.441.017c.186-.192.563-.569.755-.755l-.017-.441.674.099.006-.662.761-.052c4.392-3.25 9.296-.783 10.232-.43l.081.54.97-.093.023.697.668-.105-.023.447c.182.19.566.567.757.759zm-12.885-154.999c4.622-.645 6.222.431 7.903 1.272l.134.453.499-.046 1.847 1.864.064.343c6.008 8.749-3.434 20.268-14.186 13.071l-.552-.737-.47.064.058-.633-.598-.023.046-.616-.459-.128c-3.886-6.413-.031-13.556 5.714-14.884zm-58.534 196.803l.441-.023-.11.674.697.023-.087.964.581.087c.343.947.592 1.899.796 2.921l.337.006v4.071h-.447l-.099 1.591a88.82 88.82 0 0 1-1.829 3.002l-.285.087-.743.726-.07.285c-.993.633-2.003 1.237-3.008 1.835l-1.585.105-.006.441c-1.365-.006-2.718-.006-4.065 0l-.006-.354c-1.028-.203-2.027-.337-2.938-.807l-.075-.552-.97.081-.012-.685-.674.105.058-.668-.674.099.052-.447-.726-.784-.47-.07.07-.999-.575-.041c-.372-.947-.65-1.957-.778-2.938h-.354c-.221-2.422.128-4.814 1.167-7.003l.546-.093-.087-.964.691-.017-.099-.674.436.012.761-.755-.023-.436.674.105.017-.662.732-.064c1.407-1.171 9.174-1.156 10.575-.006l.732.07.023.656.674-.099-.023.436.758.759zm1.573 132.149l-.029.54c-3.979 5.089-8.49 6.093-13.222 4.303-4.807-2.573-5.049-5.722-5.79-7.195-.552-5.833 1.785-9.755 6.974-11.788 5.19-.719 8.355-.212 11.945 4.739 1.085 3.122 2.117 5.045.122 9.401zm-22.037-235.506l.366-.006c.023-1.486.801-2.735 1.504-3.972l.255-.081.714-.778-.047-.447.656.105-.011-.47c2.068-1.406 2.342-1.547 3.891-2.085 1.806-.424 3.92-.708 5.644.157l.674.052c.796.447 1.614.883 2.456 1.301l.046.476.668-.105-.058.668.674-.099-.052.441.72.778.459.07-.046 1.005.569.052c.383.941.604 1.91.784 2.938l.348-.006v4.076l-.354.006c-.325 2.132-.581 1.898-1.452 3.978l-.511.023.104.668-.453-.023-.732.761-.075.279c-.993.633-1.998 1.248-3.008 1.835l-1.591.105v.441a460.36 460.36 0 0 0-4.071 0v-.354c-2.023-.276-2.943-.909-3.978-1.521l-.087-.244a40.61 40.61 0 0 1-.778-.714l-.441.052.046-.441c-.174-.197-.534-.587-.714-.784l-.226-.093-.784-1.376-.116-.517c-1.173-1.848-1.045-4.073-.993-6.151zm90.739 405.516l-.784.546-.023.285c-3.441 2.371-1.713 1.102-4.239 2.387-16.76 1.764-16.041-21.422.575-19.024 6.246 2.298 9 8.433 4.471 15.806zm-1.173-28.809c-5.26-1.641-11.275-1.045-15.586 1.016-2.378 1.588 5.095 4.854-112.643-65.555l.006-153.948c-.535-2.5.642-1.007 39.389-25.121l-.023 78.574c-3.246 1.887-5.726 4.814-7.74 7.938l.029.528-.621.058.041.772-.784 1.185a22.2 22.2 0 0 0-.581 2.543l-.372.029c-.052.755-.081 1.527-.099 2.317l-.43.012c-.128 2.52-.134 5.046-.052 7.578l.372.029c.087 1.69.459 3.374 1.254 4.901.017.151.046.459.058.61 3.217 5.82.46 1.488 4.239 6.573l.436.058.035.43c13.953 12.097 28.628 5.316 32.618.163l.447-.023.006-.575.43-.058c.976-1.231 1.998-2.439 2.712-3.839l.221-.163c4.55-8.948 3.75-14.342.54-22.537l-.436-.075.029-.511c-2.009-3.141-4.512-6.045-7.746-7.95l.07-81.32c4.974-3.192 5.77-4.911 8.745-9.831.268-1.203 1.831-4.458 1.875-8.304 11.98-7.491 24.227-14.575 36.311-21.898.923-.714 1.928.203 2.839.499 8.337 3.057 12.292 1.677 19.082-.639l1.231-.854c1.887.668 97.271 58.053 97.859 58.406.131 5.1 1.999 8.853 3.066 11.271l.273.168c2.534 4.065 5.097 6.271 6.597 7.021v.528l.975-.116.099.517a53.36 53.36 0 0 1 1.585.842l.023 143.095-46.554 28.053.139-89.142c4.768-3.142 4.845-4.04 7.566-7.52.029-.151.093-.459.128-.61 3.762-7.048 3.724-12.808 1.063-20.562l-.505-.139.064-.819c-.939-1.278-.761-.899-1.382-2.439l-.482-.081.105-.645-.441-.093c-7.463-10.676-26.505-15.583-39.156 3.269l.035.807-.511.151c-1.321 4.409-1.197 2.929-1.353 5.743h-.412c-.075 2.166.006 4.349-.163 6.527l.482-.168c.136 2.58.213 3.939 1.928 7.294l.122.61c2 3.126 3.386 5.706 8.165 8.676.338 5.138.155 82.615.07 90.623-3.201 1.856-5.766 4.833-7.729 7.973l.017.494-.604.052a34.6 34.6 0 0 1-.012.784c-1.107 1.743-2.346 5.439-2.346 10.116-34.755 21.966-29.439 18.219-34.613 16.702zm-74.207-868.399c-13.682-1.755-26.49 8.533-26.433 23.536L940.954 577.7h68.29c14.869-9.127 19.147-37.025-7.823-43.669zm6.516 27.56c-.134.035-.395.099-.528.128l.151.645-.418.029a13.43 13.43 0 0 1-1.73 1.934l-.906.43-.012.523-.778-.047c-.732.395-1.481.743-2.213 1.086-1.969.11-3.972.25-5.871-.331l-1.208-.755-.732.023-.099-.708-.645.157-.041-.401c-1.552-1.102-2.312-2.493-2.874-3.362a24.18 24.18 0 0 0-.058-.598c-1.762-4.055-.057-7.872.104-8.768 1.388-1.876 1.777-2.365 4.303-4.349.163 0 .482.006.645.012 2.741-1.324 6.138-.888 8.954.099l.07.383 1.696.796-.035.505.436.041c.296.442 1.642 2.111 1.945 2.485l.046.586c1.29 2.913.947 6.519-.202 9.457zm-88.498-105.28c-28.25 17.444 3.833 58.951 27.757 36.485 11.279-9.984 9.427-28.754-3.206-36.479-.006-.585-.572-57.539.621-58.435 15.523-12.378 11.191-38.534-12.874-41.508-4.866-.139 3.273 4.455-66.1-37.217-2.251-1.837-1.207-55.012-1.161-55.596 8.648-5.268 10.09-14.246 10.493-15.632 2.662-29.833-36.874-38.181-45.631-7.63-.913 11.429 3.602 19.091 10.546 23.309l.07 61.301c1.96 3.422 3.855 6.911 5.683 10.469l62.751 37.413c-.337 2.131-.755 4.251-.83 6.417l-37.305 22.416c2.064 8.073 3.902 16.379 5.521 24.913l43.735-26.25-.07 56.024zm22.275 21.538a24.48 24.48 0 0 0-1.109 2.962c-5.445 7.559-14.593 7.343-18.896-2.985-.145-1.353-.139-2.706-.012-4.053.319-.766.581-1.556.941-2.305.029-.163.081-.494.105-.662 1.504-2.102 3.49-3.833 5.929-4.756 8.876-1.497 13.78 4.061 13.042 11.799zm-19.668-104.56l.064-.766.656-.017-.099-.668.441.017.755-.761-.018-.441.668.11.017-.697.97.087.081-.581a15.5 15.5 0 0 1 2.927-.79l.006-.343h4.076l.012.337c.976.174 1.974.453 2.927.796l.07.581.97-.093.017.697.674-.104-.018.447.755.761.447-.029-.104.679.691.012-.087.976.65.081.006.459c1.549 3.305 1.268 6.032.546 7.381l.07.836-.697.192.07.726c-.302.441-.569.894-.801 1.37l-.476.07.128.662-.43-.035-.761.755.012.261a52.82 52.82 0 0 0-2.619 1.637 43.72 43.72 0 0 0-2.044.406l-.012.348h-4.071l-.006-.343c-1.022-.18-1.98-.447-2.933-.796l-.075-.575-.97.087-.012-.691-.674.104.023-.447-.761-.761-.447.023.104-.674-.482-.029c-.418-.842-.842-1.667-1.289-2.48l-.064-.65c-.836-1.713-.93-5.032 1.117-8.127zM842.41 246.431l-.331-.041c-.522-5.356 1.318-9.055 5.877-11.474 5.554-2.251 9.624-.374 13.164 4.227l.093.616c6.405 14.033-15.96 20.707-18.803 6.672zm77.575-20.348l-.61.047c-2.268 2.004-2.131 1.623-3.205 2.863l-.424.006v.598l-.61.017.075.645-.482-.029-1.452 2.195-.255.11c-1.513 2.625-2.916 5.143-3.234 8.118l-.337-.006c-1.096 19.335 8.978 27.982 26.009 27.74l.058-.331c4.075-.198 9.163-2.782 11.73-5.319l.465-.017-.029-.621.435.041.732-.743.006-.43.633.012-.093-.645.453-.012c1.078-1.672 2.933-3.726 3.821-6.858l.383-.035.041-1.783.511.041c.006-.801.029-1.597.064-2.386l.447.058c.105-2.526.11-5.052.035-7.578l-.366.041c-.077-2.802-1.311-5.092-1.98-6.945l-.29-.163c-9.056-20.155-10.322 19.335-8.777-80.557-7.519-8.174-15.435-16.029-23.728-23.576l-.026 95.502zm7.003 10.453l.848.07.163-.54c5.331-1.818 8.526-.442 12.096 2.892 2.083 3.547 2.175 3.752 1.783 9.674l-1.144 2.044.07.47-.43.093c-2.246 3.09-5.181 4.11-7.172 4.082l-.081.406c-3.345-.556-7.439-.583-10.435-6.591-.006-.168-.023-.5-.035-.668-2.034-4.658.477-8.653 4.337-11.932zm-58.092-76.1c-1.188-1.704-3.354-4.034-6.562-5.923l-.099-.296c-1.738-.671-1.102-.421-2.491-1.266l-.61-.058c-.645-.36-1.318-.586-2.032-.679l-.052-.36-2.282-.116-.029-.424a69.3 69.3 0 0 0-8.647-.006l-.017.43-2.294.116-.046.366c-.738.087-1.411.314-2.032.679l-.604.058c-.001 0-4.268 2.485-4.268 2.485l-.11.215c-1.847 1.318-3.461 2.944-4.785 4.779l-.209.116-2.497 4.268-.041.633-1.016 2.242-.18 2.09-.406.047c-.18 2.869-.18 5.743 0 8.618l.401.041.186 2.096 1.01 2.241.046.639c.001.001 2.491 4.257 2.491 4.257l.215.122c1.324 1.829 2.938 3.461 4.785 4.779l.11.209 4.268 2.491.604.064c.621.354 1.301.581 2.032.674l.046.279c4.92 1.145 10.458 1.25 15.33-.958l.633-.058c.001-.001 4.262-2.485 4.262-2.485l.122-.215c1.823-1.33 3.444-2.95 4.779-4.779l.209-.122 2.491-4.262.029-.633c.378-.732.674-1.498 1.028-2.241l.18-2.102.406-.017c.174-2.88.174-5.772 0-8.652l-.406-.023-.18-2.096-1.022-2.242c-.012-.157-.029-.476-.035-.633-.001-.001-2.491-4.262-2.491-4.262l-.22-.126zm-8.728 15.737a25.35 25.35 0 0 0-.383 2.085l-.888 1.115-.058.801-.43.064-.72.784.046.436-.668-.093.058.662-.668-.099-.035.494c-2 .965-1.885 1.138-3.96 1.475l-.012.349h-4.076v-.36c-1.214-.046-2.305-.47-3.211-1.249l-.761-.046-.017-.662-.679.099.064-.662-.674.099.047-.441-.708-.778-.25-.087c-.806-1.39-1.39-2.296-1.51-3.978l-.36.006v-4.088l.366.006c.07-.865.267-1.707.656-2.485l.041-.441.65-.081-.081-.976.685-.012-.105-.674.662.064-.087-.674.43.041.796-.72.07-.465.999.058.046-.569c.941-.377 1.911-.633 2.933-.784l.006-.348h4.071l.006.348c2.283.351 1.991.589 3.972 1.469l.035.499.662-.099-.023.447.755.755.453-.023-.104.674.691.012-.093.976.656.081.047.43c.383.784.528 1.626.656 2.497h.36l.006 4.071h-.364zm-601.187 73.882c.894-.099 1.829-.157 2.596-.714l.825.093.145-.685.83.052c1.057-.702 6.755-3.248 9.686-8.751l.505-.07-.006-.766c3.788-5.229 3.901-13.515 1.307-20.267-6.057 10.2-11.7 20.728-16.953 31.563l1.082-.066-.017-.389zm535.388 16.195l2.096-.18 2.253-1.022.633-.035c1.555-.975.779-.576 2.503-1.272l.041-.47.482.006 1.214-.714.128-.244c1.835-1.336 3.461-2.956 4.797-4.791l.209-.122 2.491-4.268.029-.627 1.028-2.241.18-2.096.406-.041a72.35 72.35 0 0 0 0-8.612l-.401-.047-.186-2.096-1.022-2.241-.035-.639c-1.907-3.138.521.662-3.002-4.942l-.261-.099c-1.179-1.591-2.625-2.967-4.227-4.117l-.116-.215-4.262-2.491-.633-.041-2.247-1.016-2.085-.18-.052-.406c-3.606-.221-7.253-.325-10.76.645-.767.296-1.516.604-2.242.952l-.621.052-4.262 2.485-.122.209c-1.603 1.156-3.049 2.532-4.222 4.117l-.256.11c-3.19 4.856-1.117 1.859-3.014 4.942-.006.157-.023.47-.035.627-.366.737-.697 1.492-1.016 2.247-.081.697-.145 1.394-.186 2.09l-.401.052c-.193 3.065-.221 5.46.042 7.586a221.79 221.79 0 0 1 25.742 19.612l1.369-.062.023-.405zm-2.311-12.322h-4.071l-.012-.337a17.11 17.11 0 0 1-2.927-.796l-.075-.581c-.238.017-.726.064-.97.087l-.012-.691-.674.104.058-.668-.674.099.046-.441-.714-.778-.244-.093c-.731-1.261-1.363-2.313-1.521-3.966h-.348v-4.088h.343c.151-1.005.441-1.98.796-2.933l.575-.07c-.017-.244-.064-.732-.087-.976l.691-.012-.099-.674.447.023.732-.755.093-.238c1.236-.761 1.696-1.747 4.57-2.073l.012-.354h4.065l.006.354c1.913.278 2.053.523 3.966 1.463l.041.505.668-.104-.029.447c.192.186.569.569.755.755l.447-.029-.105.674.691.023-.081.97.581.075c.348.947.598 1.922.79 2.927l.343.006v4.077h-.348c-.442 2.651-.658 1.989-1.492 3.989l-.279.081-.714.772.052.441-.674-.099.07.662-.668-.105-.064.459c-1.164.665-2.56 1.433-3.949 1.51l-.007.358zm185.282-19.43l-.116.621c-.621.912-1.161 1.864-1.696 2.816l-.075.639c-.36.639-.575 1.318-.645 2.044l-.366.023-.104 2.317-.43-.012c-1.028 11.515 3.396 19.235 10.493 23.524.202 6.937.368 188.441-.145 190.439-5.651 2.156-9.318 9.591-9.825 10.453l-.064.639c-1.914 3.797-1.91 8.043-1.615 12.996l.348.041c.052 1.521.494 2.99 1.208 4.338l.099.656c1.393 2.593 1.159 2.324 2.3 3.838l.064.337c9.334 11.275 21.637 11.513 29.348 7.665 1.977-.159 31.816 18.326 32.397 18.855l-.052 59.841c-.612.358-1.186.739-1.737 1.132h26.479l.041-1.108c-.039-.027-.076-.056-.115-.083-.566-8.314.382-70.645-.674-71.658-.157-.802.035-1.696-.36-2.404l-42.362-25.568c.349-6.496-3.063-14.237-10.598-19.459-.319-2.79-.241-182.845-.041-190.955 2.214-1.245 3.841-2.776 5.123-4.302-2.403-5.343-4.901-10.612-7.489-15.811.824 10.161-11.728 15.319-18.992 5.67l-.064-.627a3.9 3.9 0 0 1-.656-2.061l-.366-.023c-.096-3.913.117-4.344.72-6.254l.418-.058-.035-.505.668-1.144c3.156-4.705 10.252-5.719 14.658-2.137-2.671-5.125-5.44-10.173-8.3-15.149-1.795.183-3.637.592-5.527 1.265-4.646 1.797-7.239 3.379-11.915 9.169zm10.493 237.457c8.235-12.341 23.857.339 16.846 9.413l-.07.749-.65.023.093.668-.441-.023c-.192.186-.563.563-.749.755l.012.441-.668-.093-.012.691-.97-.093-.081.581c-.935.383-1.945.621-2.921.79l-.023.348c-1.289 0-2.567 0-3.833-.058-5.28-1.866-5.858-3.284-7.636-7.677-.252-3.431.237-3.969 1.103-6.515zm61.304-47.263l-.29.122c-.642 1.563-.415 1.089-1.283 2.474l-.046.616c-.629 1.362-1.092 2.148-1.225 4.367l-.366.017a68.34 68.34 0 0 0 0 8.658l.424.012.128 2.294.36.047a5.17 5.17 0 0 0 .679 2.032l.058.604c2.388 4.141-.037.322 3.002 4.947l.261.093c.981 1.376 2.195 2.567 3.554 3.577l.104.267c.972.552.591.281 2.642 1.829l.778-.041.093.511c2.209.906 1.591.792 3.239 1.218l-1.597-17.321c-.311-.637-.459-1.121-.649-2.363l-.348-.012v-4.059l.288-.009-2.174-17.555c-3.554 2.067-6.146 4.806-7.632 7.675zm-167.019 40.51l-.029-.47-.604-.058.023-.807-.238-.263c.794 7.244 1.45 14.632 1.973 22.157 2.952-7.755 2.209-14.369-1.125-20.559z"/><path d="M468.983 689.605l-2.137-.145-.017-.401a107.03 107.03 0 0 0-6.846.006l-.041.441-2.323.07v.378c-1.755.249-2.088.608-4.605 1.469l-.104.238c-.708.383-1.388.813-2.038 1.283l-.755.052-.035.494c-3.058 1.735-5.513 5.485-6.44 6.701l-.017.848-.488.064c-2.451 5.906-.636 1.32-2.259 6.068-.36 1.521.232 3.455-.813 4.686 1.092 1.475.424 3.693.778 5.482l.441.029.093 1.574 1.08 2.207-.081.819.714.128-.11 1.063.743.099-.134 1.022.685.011-.122.679.674.081-.07.987.54-.047c1.211 2.132 3.112 3.581 5.052 5.011 2.355 1.069 1.074 70.345.871 70.967-1.922 1.243-3.513 2.944-4.866 4.779l-.209.11c-.001.001-2.497 4.274-2.497 4.274l-.052.61c-2.297 4.781-2.435 12.196.006 17.403l.052.633 2.497 4.262.203.116c2.447 3.424 5.486 5.288 6.858 6.3a20.29 20.29 0 0 1 .581.105c2.056 1.312 3.911 2.006 6.707 2.358l.012.366c2.874.174 5.76.174 8.647 0l.029-.406 2.096-.18 2.241-1.016.633-.047c.178-.109 4.256-2.485 4.256-2.485l.128-.221c1.846-1.318 3.455-2.956 4.791-4.785l.244-.122.714-1.219v-.488l.476-.035c.654-1.694.364-1.066 1.266-2.503.012-.157.023-.47.035-.633 2.445-5.175 2.293-12.64.012-17.392-.017-.157-.046-.464-.058-.621-.001-.001-2.485-4.262-2.485-4.262l-.215-.122c-11.8-16.126-6.165 16.906-7.648-74.73 1.13-1.595 3.255-2.09 6.486-6.434l.273-.128.784-1.702.337-.093c1.283-3.264 2.152-4.034 2.555-8.031l.366-.047.116-3.188 123.821-74.41v-.029h-46.697c-99.796 60.454-87.839 54.278-94.731 51.649zm5.615 129.965l.343.012v4.065l-.354.006c-.275 2.032-.618 1.96-1.446 3.978l-.517.023.099.674-.662-.064.099.668-.441-.046-.772.714-.093.273c-2.069.952-1.385 1.041-3.978 1.498l-.012.348h-4.065l-.006-.348c-1.005-.215-2.009-.348-2.927-.801l-.075-.557-.976.076-.023-.691-.668.11.07-.668-.679.099.052-.441-.72-.772-.25-.093c-.703-1.248-1.481-2.503-1.504-3.978l-.36.006v-4.082l.348-.011c.157-1.016.43-1.974.784-2.927l.581-.076-.087-.964.691-.023-.104-.668.453.023c.192-.186.563-.563.755-.755l-.023-.453.674.105.012-.697.97.099.075-.587c.952-.348 1.916-.633 2.927-.79l.006-.343 4.082.006.006.354c1.196.035 2.3.465 3.211 1.243l.766.058.012.656.674-.104-.023.453.755.755.447-.023-.093.679.691.006c-.029.244-.076.726-.099.97l.581.076a17.15 17.15 0 0 1 .793 2.929zm-1.881-111.255c.82.978 1.352 6.405-.598 8.797l.041.761-.72.012.139.685-.668-.035.099.679-.494-.116-.813.708.116.511-.697-.122-.035.691a34.25 34.25 0 0 0-.784-.035c-.743.36-1.475.732-2.183 1.144-1.638.093-3.275.134-4.901 0-.987-.424-1.98-.813-2.962-1.196-2.163-1.794-2.326-1.7-4.204-4.831.006-.151.023-.459.035-.61-2.23-4.552 1.235-9.164 1.87-10.185l.296.017.801-.697-.023-.331c1.473-.847 2.183-1.176 3.618-1.858 2.154-.081 4.506-.557 6.515.47l.587.116c.922.505 1.646.811 3.467 2.601l.43.865.308.087.749 1.365.011.507zm173.529-42.222l-37.402 22.502c-.877.72-1.94.343-2.875.017-9.043-4.437-23.33-.927-29.215 10.243-5.902 10.619-1.065 24.868 6.765 29.36.235.661 2 113.338-1.481 116.133-14.928 9.548-12.409 32.4 1.51 38.895.084.246.306 16.658.483 39.927 7.675-3.342 15.752-5.933 24.143-7.669l.274-33.536c12.602-8.467 12.632-28.569.023-37.106-.605-2.75-.427-113.033-.076-115.105 7.154-3.821 11.492-11.707 11.817-19.709l36.241-21.741c26.75 17.232 50.378-21.647 26.718-38.059-.41-.252-.694-4.989-.887-12.287h-24.676l-.127 11.155c-6.189 3.467-10.19 10.041-11.235 16.98zm-41.235 199.364l-.36.006c-.058 1.19-.465 2.305-1.254 3.217-.006.186-.029.569-.041.761l-.662.006.093.674-.436-.012-.761.749.029.441-.674-.099-.035.494c-2.01.882-1.605 1.087-3.978 1.469l-.006.348c-1.353-.006-2.7 0-4.042 0v-.348c-1.022-.174-1.992-.401-2.938-.784l-.081-.581-.964.093-.011-.691-.679.105.029-.447-.761-.749-.441.012.087-.679h-.685l.093-.958-.54-.116c-1.25-3.254-1.201-2.527-1.185-6.986l.337-.006c.163-1.016.447-1.974.795-2.921l.575-.087-.087-.97.482-.035.714-.802-.035-.459.668.087-.058-.668.674.104.011-.685.97.075.076-.581c.941-.354 1.905-.633 2.909-.79l.029-.337 4.071-.006.041.441 1.545.128 2.451 1.295.035.255.796.708.43-.029-.035.453c.174.203.534.604.714.807l.482.035-.087.976.586.07a16.65 16.65 0 0 1 .778 2.932l.343.012-.007 4.073zm1.649-152.142l-1.463.54c-.412.807-.9 1.568-1.411 2.311l-.476.041.075.65-.436-.041-.778.714-.105.244c-.476.232-.929.499-1.365.796l-.72-.064-.18.563c-4.062 1.258-6.693.427-8.96-1.051l-.784-.029-.023-.662-.674.099.029-.447c-.186-.192-.563-.563-.755-.749l-.447.017.099-.668-.494-.035c-.837-1.562-1.286-2.773-1.777-4.181-.064-1.295-.058-2.578-.052-3.862l.343-.017c.163-1.01.453-1.969.796-2.921l.581-.087-.087-.964.685-.006-.093-.662.436-.006.743-.743.006-.436.633.075.064-.488c6.942-3.901 12.672-1.124 15.574 2.921l-.093.534.645.012-.029.813c1.022 1.481.749 3.455 1.103 5.168-.314.838-.477 1.727-.61 2.621zm60.235-53.772c7.469-1.89 15.043 4.347 11.295 14.117-.447.598-.842 1.237-1.26 1.864l-.314.064-.523.743c-14.013 10.263-23.737-12.724-9.198-16.788z"/><path d="M607.502 1538.673l.441-94.264-1.411.052c5.116-1.495 11.697-8.703 12.561-20.429 8.458-5.401 113.372-67.935 123.13-74.085l.534-156.021c8.38-3.981 10.763-11.81 11.19-21.044.867-1.106-1.671.627 35.533-21.712 16.886 7.727 33.249-2.772 33.994-20.249l51.728-31.247.377-92.847c21.653-14.622 3.365-50.918-22.943-39.65-17.364 8.102-17.68 31.226-3.461 40.149 2.811 2.097 1.898-7.523 1.957 78.614l-38.413 23.106.075-99.81c7.803-4.62 12.799-14.095 9.349-27.409-12.031-31.085-9.339 29.031-10.203-83.562-.041-1.382.081-2.747.343-4.094 21.75-14.688 3.317-50.744-22.932-39.667-18.46 8.717-17.096 33.898-1.986 40.951.796 2.398.383 4.953.47 7.439.596 104.891-.984 51.229-10.052 82.522-1.667 9.065 2.346 19.07 10.371 23.82.204 6.52.15 88.345.047 102.098-5.817 3.547-10.344 10.287-10.725 18.716-59.501 36.774-27.86 15.312-51.833 19.691-7.895 1.284-2.062 5.937-26.396-8.612l-2.981 1.832c1.166 4.857 1.801 9.915 1.801 15.117v10.679l6.95 4.172c.657 10.798 5.653 17.904 13.089 21.503l.047 141.788-110.297 66.193.042-59.768c-9.5-3.985-17.866-10.169-24.473-17.897l.042 78.478-96.215-57.738c12.073-6.348 31.064-18.543 34.929-19.622 3.518 2.046 10.023 3.142 18.733-.046 17.875-8.755 17.355-32.798.662-41.589-18.121-8.013-33.897 5.966-33.46 21.271-.582.351-32.982 19.642-35.265 19.453l.29-82.377c23.711-12.879 6.873-52.39-21.184-40.805-14.251 6.698-20.356 26.792-3.507 40.381.15.583 2.146 83.306-2.23 88.178-3.885 4.042-5.743 9.628-6.103 15.145-12.481 7.729-53.972 29.907-55.625 34.987-.855 2.694-.06 32.612-.453 88.585-18.293 11.124-11.566 40.006 9.361 42.275 22.994 3.558 36.248-29.323 15.191-42.28l-.017-76.704c2.596-2.027 43.583-25.727 44.092-25.911 6.571 1.834 10.862 4.643 21.538-.418l97.737 58.667c.654 3.028 1.189 13.031 10.853 19.035a38.77 38.77 0 0 0 .679 1.98l-.029 79.247-133.722 79.846.017 17.87h23.796l.076-3.783 133.891-80.2zM851.927 986.23l.343-.006c.157-1.016.447-1.969.79-2.915l.581-.087-.087-.97.691-.012-.099-.674.441.023.755-.761-.012-.447.679.099v-.691l.976.105.081-.662.441-.023c4.657-2.244 7.899-.451 9.483.139l.093.534.964-.093.017.697.674-.105-.023.447.761.761.453-.023-.11.674.691.017-.093.97.662.081.035.435c.395.772.534 1.603.656 2.491l.366-.006v4.076l-.354.006c-.329 2.28-.625 1.888-1.446 3.978l-.517.017.099.674-.447-.017-.761.749.035.453-.674-.105-.029.494c-2.134.965-1.658 1.082-3.972 1.475l-.006.348a460.36 460.36 0 0 0-4.071 0l-.006-.343c-1.022-.197-1.98-.436-2.927-.79l-.081-.581-.97.081-.011-.685-.674.099.017-.441c-.192-.186-.569-.569-.755-.755l-.447.017.105-.674-.691-.006.087-.976-.546-.081c-1.187-3.098-1.225-2.965-1.167-7.011zm-41.345 145.765l-.366.006c-.173 1.703-.562 2.016-1.446 3.972l-.499.023.099.674-.668-.058.093.668-.465-.052-.778.72-.07.296c-2.095.956-1.677 1.085-3.96 1.475l-.012.348c-1.637-.099-3.42.337-4.913-.494l-.645-.029c-1.576-.909-.737-.477-2.48-1.301l-.041-.494-.668.099.023-.441-.761-.755-.441.017.104-.674-.697-.012a53.74 53.74 0 0 0 .099-.976l-.587-.064a12.65 12.65 0 0 1-.784-2.938l-.348-.006v-4.077l.348.006c.257-1.844.524-2.121 1.475-3.972l.499-.041-.11-.668.447.029.755-.761-.017-.447.679.105.006-.697.97.099.075-.581c.952-.348 1.911-.65 2.933-.796l.006-.343c4.486-.016 3.659-.093 6.997 1.179l.093.534.964-.093.012.691.679-.099-.017.447c.192.186.569.569.755.761l.447-.029-.105.679.691.012-.087.97.581.087c.343.947.598 1.899.79 2.915l.343.006.002 4.08zm-1.248-147.386c.302 1.051.662 2.09 1.132 3.101.134 1.429.134 2.869.104 4.315l-.343.017a6.15 6.15 0 0 1-.668 2.032l-.087.691c-5.55 7.239-13.121 6.576-18.007-.035l-.064-.627c-.412-.633-.633-1.318-.656-2.061l-.354-.023c-.055-5.085-.026-3.732 1.243-7.392l.343-.052.418-.923c.859-.917 1.783-1.771 2.787-2.52 4.142-2.297 9.111-1.953 13.385 2.52l.406.923.361.034zm-20.702-112.19l.343-.012c.157-1.016.447-1.974.79-2.927l.581-.07-.087-.97.691-.023-.099-.674.447.029.749-.749-.012-.453.662.093.041-.708.952.128.07-.668.459-.029c2.027-1.057 4.309-1.167 6.55-1.039l.006.354c1.856.27 2.09.537 3.966 1.475l.041.499.668-.104-.023.441.761.755.441-.017-.105.674.685.011-.081.976.65.087.041.43c.395.784.534 1.603.662 2.491l.36-.006v4.071l-.441.006-.104 1.597a79.97 79.97 0 0 1-1.847 3.014l-.273.064-.738.737-.075.285c-.987.633-1.992 1.249-3.008 1.835l-1.579.093v.447a460.36 460.36 0 0 0-4.071 0l-.006-.348c-2.209-.387-1.888-.471-3.972-1.475l-.029-.494-.668.099.023-.453-.755-.726-.273-.064a53.55 53.55 0 0 1-1.893-3.095v-.674c-.866-1.486-.407-3.298-.5-4.913zm-69.614 299.871c.804-2.557.622-2.314 1.736-4.297 6.546-8.438 20.813-3.567 17.235 8.705l-.296.116c-.505 1.8-2.067 2.961-3.368 4.193-1.103.563-2.253 1.016-3.397 1.481-1.638.122-3.269.093-4.895.006-.726-.424-1.469-.784-2.178-1.15l-.772.023-.052-.656-.668.075.023-.424-.801-.679-.273-.052c-2.629-3.61-2.316-5.82-2.294-7.341zm-195.049 125.918l.459-.012-.052-.679.656.017-.012-.43c.865-.598 1.69-1.26 2.48-1.945h.656c1.596-1.121 7.028-.987 8.159-.011l.528.023c.65.453 1.312.941 1.998 1.382l-.017.412.662-.07-.047.436.743.813.255.035.749 1.318.012.825.476.104c.627 1.957.825 4.007.528 6.062l-1.707 3.792-.232.052c-.511.691-1.098 1.336-1.73 1.934l-.9.424-.017.523-.784-.047c-.726.383-1.475.72-2.207 1.092-1.957-.023-4.117.488-5.9-.528l-.546-.075-1.353-.662-.11-.499-.639.145-.064-.412a55.28 55.28 0 0 1-1.73-1.475l.029-.314-.639-.854-.464.006.029-.801c-.401-.767-.714-1.568-1.051-2.329-.423-4.908.489-5.408 1.782-8.252zm-117.626 192.401c-4.86 10.587-13.548 9.872-19.029 2.863l-.017-.54c-1.338-2.779-1.117-3.901-1.057-6.661l.319-.047c2.006-8.71 14.432-11.991 19.796.238.081 1.365.087 2.753-.012 4.147zm45.393-264.872c-.848-1.487-.395-3.292-.488-4.901l.343-.012c.163-1.022.441-1.974.79-2.927l.586-.075-.093-.964.691-.017-.099-.674.447.023c.192-.186.563-.563.755-.755l-.023-.447.668.099.023-.691.97.087.07-.575c.941-.383 1.916-.662 2.933-.79v-.349h4.076l.006.36c1.683.184 2.265.591 3.966 1.463l.035.494.668-.104-.023.453.755.749.453-.012-.099.674.685.006-.093.97.586.075c.354.952.61 1.905.79 2.933l.343.006c-.116 1.609.383 3.443-.511 4.901a40.83 40.83 0 0 0 .064.859l-.476.139c-.261.714-.575 1.423-.854 2.166l-.54.006.104.673-.453-.023-.738.749-.046.273a73.05 73.05 0 0 1-3.031 1.847l-1.591.11v.441a460.36 460.36 0 0 0-4.071 0l-.012-.343c-1.01-.203-1.974-.453-2.927-.796l-.07-.581-.97.099-.018-.697-.674.099.023-.447-.755-.755-.447.029.099-.668-.476-.052a42.19 42.19 0 0 0-1.301-2.456c-.009-.167-.038-.504-.05-.672zm20.4 121.957c-.006.168-.029.494-.035.656-1.016 1.705-.508.803-1.301 2.479l-.5.035.099.662-.441-.017-.767.755.035.441-.668-.104-.041.499c-.662.296-1.307.621-1.928 1.005a24.33 24.33 0 0 1-2.038.47l-.006.349c-4.745-.034-3.56.093-6.997-1.173l-.087-.546-.97.093-.012-.691-.674.099.017-.441c-.192-.186-.569-.569-.755-.755l-.447.023.11-.673-.691-.012.081-.981-.546-.081c-1.451-3.87-1.873-5.04.017-9.924l.534-.093-.099-.97.691-.006-.093-.674.441.012.755-.755-.018-.441.674.099.012-.697c.244.029.726.075.97.099l.081-.557c5.32-2.309 7.919-.767 9.936.011l.081.54.975-.087.012.691.674-.104-.017.447.755.761.447-.029-.11.674.697.023-.087.97.581.075c.343.947.604 1.899.79 2.921l.343.006c-.085 1.624.327 3.4-.48 4.916zm117.353 68.801l.511.058.128-.453 1.248-.615c9.068-4.305 17.329 6.075 12.526 13.28-6.632 11.328-26.24.02-14.413-12.27zm-49.739-299.189c-10.729 6.435-19.805 12.369-20.537 14.621-.826 2.567-.083 30.069-.453 72.32-6.435 3.95-8.92 9.475-10.54 15.685-2.509 28.787 35.422 39.062 45.637 7.63.849-11.291-3.254-18.875-10.516-23.28-.173-7.041-.128-55.517-.052-60.45 1.265-.953 9.581-6.079 14.99-9.078-6.757-5.173-12.973-11.016-18.529-17.448zm1.297 108.454c-1.031 2.368-.965 2.375-1.051 2.956-12.231 16.057-28.073-8.196-13.112-14.198 3.984-1.981 9.293-1.07 13.135 4.233a22.31 22.31 0 0 1 .075.627c.377.61.604 1.295.668 2.05l.354.041c.041 1.422.036 2.851-.069 4.291zm413.094-691.287l-.18-2.108-1.01-2.236-.052-.633-2.485-4.268-.215-.116a21.4 21.4 0 0 0-4.773-4.773l-.128-.221c-.001 0-4.256-2.491-4.256-2.491l-.639-.035c-.738-.383-1.51-.691-2.242-1.022l-2.102-.18-.023-.401c-2.88-.186-5.766-.186-8.641 0l-.024.401-2.108.18-2.236 1.028-.639.029c-.001.001-4.256 2.491-4.256 2.491l-.122.209a21.16 21.16 0 0 0-4.785 4.791l-.215.116-2.479 4.262-.047.633-1.016 2.241-.186 2.096-.401.041a68.74 68.74 0 0 0 0 8.612l.401.052.186 2.09 1.022 2.247.035.627c.001.001 2.485 4.268 2.485 4.268l.215.11c1.34 1.886 3.357 3.907 6.115 5.766l.511-.006.052.662.97-.157.087.558c4.992 1.948 6.488 2.831 15.075 2.305l.023-.401 2.102-.174c.732-.354 1.498-.662 2.242-1.028.157-.012.476-.023.639-.035.001-.001 4.251-2.491 4.251-2.491l.134-.215a21.68 21.68 0 0 0 4.773-4.779l.215-.128 2.497-4.257.029-.633c.366-.737.668-1.498 1.022-2.241l.18-2.079.406-.075c.174-2.869.174-5.749 0-8.618l-.407-.014zm-12.322 6.387l-.348-.006c-.18.999-.401 1.998-.79 2.944l-.575.064c.017.244.064.726.087.97l-.691.023.099.674-.447-.029-.749.755.017.447-.668-.099-.029.494a19.72 19.72 0 0 0-1.94 1.005c-.674.192-1.353.348-2.027.47l-.012.348h-4.065l-.012-.36a5.28 5.28 0 0 1-3.211-1.237l-.766-.07-.012-.65-.674.104.023-.453-.755-.755-.447.029.105-.668-.5-.041c-.875-1.705-1.303-2.377-1.463-3.966l-.36-.006v-4.071l.343-.012c.157-1.005.441-1.969.79-2.909l.575-.093-.076-.97.691-.017-.11-.674.662.07-.093-.674.441.047.772-.714.087-.261c1.243-.703 2.497-1.458 3.978-1.498l.006-.36h4.071l.012.348c1.829.266 2.089.545 3.966 1.475l.058.296.784.714.459-.047-.081.668.662-.058-.099.679.685.006-.093.97.586.075c.348.952.592 1.922.79 2.932h.343l.001 4.091z"/><path d="M52.422 882.564c6.097 2.718 13.519 2.898 19.453-.349 1.924.259 103.444 61.5 104.026 61.85.319 8.019 4.686 15.894 11.846 19.744.31 3.843.232-5.387.232 118.647l-112.3 67.302c-.008-.7-.198-67.408.285-69.765 12.471-8.444 12.689-28.543 0-37.112-.622-2.946-.254-71.814 0-74.375 3.368-2.265 5.766-5.644 7.607-9.204.257-1.285 4.009-8.816.145-18.031-2.862-14.315-31.934-22.747-42.455-.685-3.3 17.047-.499 15.025-.006 18.722 2.253 4.558 5.743 8.507 10.232 10.958l-.453 71.344c-15.402 7.209-15.394 32.424.012 39.673.697 2.015.453 4.175.476 6.277-.227 70.005 1.087 62.814-2.125 65.921-6.568 5.967-9.354 15.09-5.186 26.52 10.32 21.181 42.107 16.396 44.086-9.465l123.752-74.352.07-132.329c-.743-.151-1.475-.261-2.207-.372 14.999-4.274 20.392-37.716-9.605-42.844l-.01-.537.004.543c-23.761.388 14.786 18.086-114.885-59.022-.814-8.303-3.247-14.59-10.725-19.715l.035-110.883c14.719-10.046 12.535-31.371-1.127-38.802-.175-.99-.271-10.869-.301-23.016-14.643 11.563-27.008 25.881-36.316 42.172l1.781 1.069c.686 7.791 3.352 14.786 11.318 19.227.306 4.248.12 99.129.058 109.647-6.98 3.966-11.567 11.834-11.422 19.883l-20.816 12.586v28.213l30.2-18.117c1.348-.644 2.747-2.287 4.321-1.323zm-.11 64.184l.343-.006c.168-1.022.441-1.98.79-2.932l.586-.07-.093-.97.691-.023-.099-.668.447.017.732-.755.105-.238c1.164-.745 1.749-1.775 4.558-2.067l.006-.354h4.065l.012.348c1.819.26 2.108.53 3.966 1.475l.041.494.668-.099-.023.441c.186.192.569.569.755.755l.447-.017-.105.674.691.012-.087.976.575.07c.354.952.621 1.911.796 2.933h.343v4.076l-.36.006c-.288 2.122-.581 2.052-1.463 3.966l-.494.035.105.668-.447-.023-.755.749.012.279c-.877.517-1.748 1.051-2.596 1.626-.691.128-1.376.267-2.061.418l-.012.348c-1.359-.006-2.712-.006-4.071 0l-.006-.354c-1.005-.163-1.992-.406-2.932-.784l-.076-.575c-.244.017-.726.064-.97.087l-.006-.685-.679.093.017-.447-.749-.755-.447.029.104-.668-.499-.041c-.954-1.995-1.121-1.789-1.475-3.966l-.348-.006-.002-4.072zm2.212 120.245l.11-.668-.499-.041c-.9-1.865-1.213-2.09-1.469-3.966l-.354-.006v-4.065l.366-.006c.093-.894.261-1.713.656-2.491l.035-.436.656-.075-.087-.976.691-.023-.105-.674.662.07-.093-.674.488.081.569-.755c1.272-.865 2.625-1.73 4.222-1.754l.006-.36h4.071l.006.354c1.842.232 2.251.604 3.966 1.469l.041.499.668-.104-.023.436.761.761.435-.017-.099.668.656.017.058.766c.767.912 1.208 1.998 1.243 3.211h.36v4.077l-.36.006c-.237 1.869-.55 2.073-1.463 3.966l-.499.041.11.662-.453-.023a43.45 43.45 0 0 1-.732.755l-.064.279c-.987.633-1.992 1.249-3.014 1.841l-1.591.104-.006.441-4.071-.006-.006-.337c-1.005-.197-1.98-.447-2.932-.796l-.076-.581-.964.099-.012-.691-.679.093.023-.447-.755-.755-.453.031zm19.047 109.042l-.494.023.145.685-.662-.046.093.685-.494-.116-.813.708.116.511-.697-.122-.035.691a34.52 34.52 0 0 0-.79-.035c-.732.354-1.469.726-2.189 1.144-1.649.087-3.298.116-4.948.017-1.173-.459-2.346-.917-3.351-1.678l-.714-.052-.064-.47c-1.863-1.836-2.035-2.179-2.956-3.862v-.587c-1.005-1.614-.511-3.612-.546-5.389.701-2.12 1.331-3.07 2.427-4.802l.273-.012.807-.72.046-.54.941.145.064-.749.668.221.017-.465c3.464-1.385 6.832-1.07 8.397-.279l.569.122 1.359.697.058.47.674-.151.041.482a2.05 2.05 0 0 1 1.237 1.289l.488.012-.11.668.47.064.708 1.336c.535 2.692 1.911 4.42-.735 10.105zm116.266-235.994l.046-.546.668-1.359.517-.076-.122-.656.499-.023c.209-.633.627-1.057 1.243-1.278l.029-.488.685.139.046-.465 1.359-.703c2.565-.616.908-.94 7.084-.575 3.907 1.825 1.75.879 4.21 2.439l-.006.453.505-.029c1.845 2.993 1.374 2.13 2.41 4.721.227 2.12.07 4.268-.61 6.306l-.534.11.134 1.01-.505.157c-.528.865-1.19 1.661-1.974 2.323l-.093.308c-1.318.72-2.694 1.33-4.094 1.887-1.632.11-3.269.087-4.895-.006-.72-.418-1.463-.79-2.189-1.15l-.784.041-.035-.691-.697.122.116-.511-.813-.708-.494.116.099-.679-.668.041.145-.685-.714-.017.023-.766c-1.723-2.485-1.717-6.085-.591-8.762zM60.046 871.142c-8.86-2.03-10.274-12.883-4.349-17.392 4.57-4.129 12.467-2.305 15.115 3.147 3.532 8.646-3.688 15.484-10.766 14.245zm-5.539-164.993l.052-.418.43.017.755-.697.151-.244 1.278-.772a20.77 20.77 0 0 1 .546-.104c4.234-1.787 7.939-.046 8.774.099l1.301.778.11.43.633-.076-.035.47.807.523c2.523 2.888 3.276 7.473.552 11.945-10.49 11.247-23.503-3.854-15.354-11.951z"/><path d="M200.297 920.103l-.002-.241.002.241zm-71.189-207.375c.163.778-.11 1.73.389 2.416l43.5 26.224.157 3.827.36.052c.12 1.332.292 2.993 2.625 7.427l.412.087-.006.465.72 1.214.325.046c.754 1.47 3.011 3.954 6.632 6.057.22 4.683.174 63.301.029 73.272-3.164 1.824-6.41 5.463-7.601 7.95-.174.192-.534.563-.708.749l.012.586c-3.537 6.591-2.21 12.149-1.684 16.55l.412.023.163 1.521a21.4 21.4 0 0 1 1.278 2.962l.447.093-.041.5c1.063 1.678 2.329 3.211 3.618 4.727l.273.128c8.729 8.973 23.905 8.72 32.281-.012l.389-.087.087-.395c1.161-1.249 2.346-2.509 3.078-4.065l.401-.145-.122-.645.436-.087c2.851-6.957 4-13.906.197-21.05l.023-.784-.616-.058.023-.523c-2.043-3.135-4.394-5.968-7.717-7.921-.019-.581-.927-74.219 1.156-74.77 3.082-2.298 4.503-4.74 5.859-6.481.244-.697.575-1.347.848-2.015l.465-.168-.006-.801c1.034-2.49.751-1.003 1.243-4.349l.354-.046c.171-11.49.108-5.255-.563-10.958l-.331-.023c-.058-.749-.279-1.429-.662-2.044l-.064-.61c-1.42-2.428-.911-1.66-1.945-3.6l-.441-.052.052-.511c-8.695-10.021-19.67-11.429-27.531-7.851-2.888 1.451-3.049-.353-33.431-17.961-1.02-.344-.997-39.346-.887-63.258-8.328.588-16.46 1.88-24.342 3.812.329 69.424-.681 69.262.454 70.582zm77.5 138.461c.064 1.376.064 2.758-.006 4.152-1.112 2.394-1 2.311-1.086 2.892-5.439 7.343-13.224 6.389-17.943-.046l-.052-.552c-.951-2.015-1.189-2.074-1.039-6.649l.343-.041c.058-.755.285-1.44.679-2.05l.064-.621c4.83-6.922 13.201-6.844 17.972-.012.121.85-.109.181 1.068 2.927zm-19.72-114.972l.064-.761.656-.011-.099-.674.436.012.761-.755-.023-.436.674.099.017-.662.761-.046c.912-.79 2.009-1.214 3.217-1.249l.006-.36h4.077l.012.36c1.19.035 2.288.47 3.205 1.237l.761.064.029.662.668-.104-.023.435.761.761.441-.023-.11.674.668.023.035.784c.837 1.409 1.818 1.924 1.62 7.264l-.354.012-.406 2.032-1.626 2.462c-1.167.993-2.329 2.003-3.629 2.834-.685.104-1.37.226-2.05.377l-.006.354h-4.071l-.006-.36a5.25 5.25 0 0 1-3.211-1.243l-.767-.058-.017-.656-.668.105.064-.668-.674.099.046-.436-.714-.778-.255-.087c-.916-1.648-1.163-1.713-1.504-3.984l-.36.006c-.027-3.299-.248-4.583 1.594-7.305zm825.207 18.339l.598.017.011.435.726.714.255.052.766.685.081.261 2.363 1.533c.614 7.63 0 8.75.058 81.082l-.575-.023c-3.604 3.142-1.897 1.4-3.24 2.892l-.418.006v.604l-.61.006.087.639-.453-.006c-.587.877-1.237 1.701-1.957 2.468l-.006.83-.633.07.116.662-.61.064-.023.79c-1.042 1.836-1.726 3.56-1.841 5.528l-.366-.012c-1.74 28.884 26.348 33.352 37.803 22.095l.459-.017-.035-.621.441.041.732-.743.006-.424.459-.006c1.385-1.962 3.575-4.461 4.344-7.491l.395-.052.041-1.777.511.035c.006-.807.029-1.603.058-2.381l.453.058a103.54 103.54 0 0 0 .035-7.578l-.366.041c-.023-1.955-.784-4.132-1.992-6.934l-.279-.18c-1.643-3.577-4.587-6.37-7.746-8.617-.615-1.2-.085-80.453-.076-81.036 2.255-1.412 2.791-1.851 5.337-4.425l-.087-.494.459-.047 2.48-3.67.07-.621c2.456-4.303 2.555-9.401 2.201-14.209l-.424-.012-.105-2.317-.447-.023-.18-1.516c-1.165-2.411-2.668-5.853-5.168-7.868l.029-.459-.453.006c-3.557-4.378-12.743-8.547-23.21-5.656-.732.319-1.452.633-2.154.981h-.813l-.168.691-.999-.139-.041.65-.5-.018c-.643.402-1.561.829-3.74 2.886l-.459.029.035.436-.755.72-.244.058c-3.499 4.561-1.401 1.529-4.274 6.539l-.099.627c-.343.639-.552 1.324-.627 2.056l-.372.012a60.83 60.83 0 0 0-.099 2.334l-.43-.023c-.499 7.383.382 13.704 5.644 19.32l.021.442zm13.048-24.877c4.33-1.837 10.778-.867 13.722 5.807.104 2.543.738 5.418-.552 7.752l-.023.621c-.999 1.225-1.986 2.491-3.327 3.356l-.128.401-.453-.023c-.738.343-1.411.743-2.114 1.103-2.009.226-4.03.244-6.016-.041-1.745-.909-2.795-.751-5.97-4.797l-.075-.627c-2.653-5.357-.138-11.088 4.936-13.552zm-4.948 124.46l.093-.65a24.15 24.15 0 0 1 3.67-3.716c.163-.023.488-.058.65-.081 4.834-3.016 15.414-.992 14.221 12.131-2.677 5.401-4.579 5.875-8.948 7.026-1.829-.209-3.652-.476-5.354-1.144-6.634-4.977-6.248-10.431-4.332-13.566zm-698.319 98.712c-9.484 5.535-11.284 14.937-9.982 25.841l.325.035a57.57 57.57 0 0 1 .447 1.992c1.336 2.544 1.945 4.433 4.895 7.427l.087.401.395.093c8.541 8.907 23.85 8.782 32.275 0l.389-.093.093-.401c7.279-7.388 8.088-19.132 3.978-26.015l.076-.714a27.03 27.03 0 0 1-.668-.128l.041-.494c-2.018-3.078-4.405-5.979-7.741-7.944-.105-5.383-.315-150.898.128-153.814 4.11-3.069 3.63-2.835 5.819-5.186l-.035-.476.668-.058-.035-.935.476-.064c.808-1.643 1.452-2.625 1.8-3.206.168-.94.734-2.172 1.068-2.88.426-2.927 1.625-5.729.023-13.095l-.279-.023a4.36 4.36 0 0 0-.656-2.044l-.064-.598c-5.748-10.468-13.412-15.109-25.951-13.461-5.38 1.519-9.149 2.978-14.709 10 0 .197.012.592.017.784l-.476.105-1.312 2.578-.076.592c-.389.616-.604 1.301-.65 2.05l-.372.017-.104 2.317-.43-.011c-.041 2.956-.453 5.999.29 8.902 6.84 31.756 12.065-43.26 10.25 168.506zm7.014-181.937c4.623-2.576 11.045-1.515 13.855 3.409l.267.099c.354 1.034.749 2.062 1.179 3.078.116 1.429.099 2.869.081 4.315l-.337.011c-.11.726-.337 1.411-.691 2.062l-.052.639c-5.621 7.413-13.174 6.501-18.025-.006-.012-.157-.046-.47-.064-.627a3.92 3.92 0 0 1-.656-2.062l-.354-.023c-.055-5.189.604-7.728 4.797-10.895zm-4.796 199.114l.354-.035c.052-.761.279-1.446.674-2.056l.07-.627c4.804-6.864 13.155-6.892 17.978 0l.07.627c.389.616.61 1.295.668 2.056l.36.035c.023 1.44.029 2.886-.052 4.344-.418.952-.825 1.934-1.15 2.938-4.526 6.552-12.588 7.054-17.845-.035l-.093-.627-.993-2.265c-.07-1.463-.07-2.915-.041-4.355zm362.057-161.839c21.925-13.309 8.439-47.939-17.578-42.443-22.753 7.054-22.551 32.935-6.951 42.443l.069 108.02c8.504 1.996 16.668 4.872 24.394 8.524l.066-116.544zm-21.747-16.655a20.47 20.47 0 0 1-.035-6.068c4.129-11.094 19.416-7.468 19.256 2.462.489 10.403-13.347 15.268-19.221 3.606zm83.33 179.325l-.029-162.67c20.286-12.314 11.456-46.605-17.572-42.437-22.134 6.439-23.014 32.548-6.957 42.449l.03 143.481c14.03 14.851 24.418 33.176 29.739 53.551 10.235-13.435 4.811-28.496-5.211-34.374zm-21.817-185.393c3.66-9.228 15.231-9.069 19.047.006 2.421 16.985-21.285 17.339-19.047-.006zm195.816 173.703c.192 9.5.168 19.024.006 28.53-6.801 3.953-11.617 12.118-10.557 23.524l.43-.006.104 2.317.36.029c.801 3.588 2.912 6.806 4.982 9.204l.43.064.029.43c11.866 10.287 25.186 7.838 32.658.221l.395-.087.018-.563.43-.064c6.697-8.019 7.732-16.281 3.461-26.509l-.302-.134c-1.691-3.492-5.007-6.787-7.845-8.432-.157-9.309-.18-18.634.017-27.937 26.507-15.867 1.646-55.691-22.804-40.84-2.538-.93-30.463-17.713-31.851-18.884l.052-80.746c2.733-1.582 5.892-4.63 7.857-8.438.116-.023.36-.081.482-.104-.006-.186-.006-.563-.006-.749 2.721-5.284 2.913-10.763 1.603-16.538l-.267-.041c-.168-.668-.313-1.33-.441-1.98-2.209-4.162-.815-2.332-4.541-7.224l-.43-.052-.029-.436c-9.299-8.061-18.771-8.323-26.48-4.651-2.296 1.218-4.218 2.419-6.184 4.431l-.389.093-.081.401c-2.337 2.352-4.506 5.52-5.348 9.43l-.366.029c-.046.755-.081 1.527-.099 2.305l-.43.023c-.134 2.52-.139 5.04-.064 7.566l.401.035c.483 6.583 4.988 12.83 10.22 15.899l.598 92.621c.948 3.898-7.261-2.43 43.227 28.169.507 8.506 4.184 14.831 10.754 19.094zm4.448-25.214l.424.012.749-.743-.029-.441.645.099.099-.453 1.307-.766.546-.093c2.48-1.063 5.749-1.063 8.24 0l.534.075 1.312.784.105.453.645-.099-.029.435.749.743.418-.012-.006.499c4.028 5.197 1.372 12.681-4.773 14.5-11.166 2.392-15.815-8.503-10.929-14.5l-.007-.493zm-2.23 70.915l.354-.041c.052-.755.273-1.44.674-2.05l.07-.627c4.844-6.922 13.191-6.835 17.978 0l.076.627c.372.616.592 1.301.662 2.05l.36.041c.017 1.44.029 2.892-.052 4.349-.349.749-.61 1.562-1.04 2.294l.006.557c-5.657 7.525-13.359 6.287-17.961.046-.017-.157-.064-.47-.087-.627l-.999-2.265a57.01 57.01 0 0 1-.041-4.354zm-34.412-202.755l-.354.041c-.07.737-.296 1.417-.674 2.05l-.07.627c-6.349 7.84-13.529 6.105-17.972.006l-.087-.633c-.383-.639-.604-1.324-.662-2.05l-.343-.041c-.114-5.268.772-8.818 5.848-11.504 5.59-2.096 9.566-.472 13.188 4.256.018.157.064.47.087.633l.993 2.259c.064 1.441.069 2.892.046 4.356zm342.43 146.062c2.986 7.453 9.558 12.22 16.804 13.838v-13.369c-1.575-.834-2.72-2.026-3.779-3.175l.087-.505a12.42 12.42 0 0 1-.494-.105c-2.24-6.347-1.339-11.026 4.185-14.186v-13.66c-14.465 3.077-21.814 18.211-16.803 31.162zm-783.798 29.348c.047 1.521.43 3.02 1.237 4.338l-.012.825.436.174 1.562 3.205.47.134-.093.621.389.052c1.192 1.709 3.675 4.252 5.488 5.232l.087.325c1.516.622 1.169.445 2.404 1.365l.627.064c5.106 2.553 8.26 2.366 13.675 2.201v-.412l2.84-.197.052-.354c1.132-.197 2.189-.656 3.182-1.219l.639-.087c1.381-1.028.836-.695 2.398-1.365l.087-.319c1.8-.973 4.289-3.531 5.482-5.215l.221-.139c0-.001 2.473-4.239 2.474-4.239l.093-.65c.714-1.347 1.144-2.822 1.214-4.344l.354-.017c.174-2.886.18-5.772-.006-8.647l-.424-.029-.116-2.288-.366-.041c-.076-.743-.302-1.423-.679-2.038l-.017-.65-1.161-1.632a36.75 36.75 0 0 1 .018-.813l-.459-.105c-1.606-2.885-4.084-5.29-5.911-6.568l-.128-.209c-1.859-1.035-.345-.534-3.902-2.108l-.174-.476-1.016.163-.145-.523c-1.312-.395-2.648-.738-4.007-.825l-.035-.366c-2.869-.186-5.743-.192-8.606-.006l-.018.366c-1.382.087-2.706.435-4.018.83l-.145.505-.854-.064s-1.472.83-4.233 2.497l-.145.221c-1.829 1.318-3.443 2.938-4.767 4.773l-.215.128c-.843 1.352-1.006 1.647-2.48 4.245l-.075.621c-2.354 4.614-1.659 9.986-1.579 13.037l.357.023zm12.369-6.394h.343c.162-1.022.441-1.98.79-2.927l.581-.081-.087-.964.691-.023-.099-.674.436.023.755-.761-.012-.435.674.099.012-.697c.244.029.732.076.97.099l.076-.581c.952-.348 1.922-.645 2.932-.796l.006-.343h4.076l.011.36c1.191.035 2.294.465 3.206 1.243l.761.052.023.662.668-.099-.017.436.761.761.441-.023-.104.679.662.012.046.761c.784.912 1.202 2.003 1.243 3.217h.366v4.076l-.36.006c-.204 1.715-.59 2.136-1.452 3.972l-.499.017.099.674-.662-.052.081.668-.459-.052-.784.726-.064.29c-.662.296-1.306.633-1.928 1.005a24.75 24.75 0 0 1-2.032.47l-.012.348c-1.359-.006-2.718-.006-4.071 0l-.006-.343c-1.016-.192-1.98-.436-2.932-.79l-.07-.581-.97.087-.023-.691-.674.105.07-.668-.679.099.047-.441-.714-.778-.25-.081c-.708-1.249-1.475-2.509-1.504-3.984l-.36.006-.003-4.088zm690.398 76.914l-1.179-2.271.017-.778-.61-.058.029-.523c-1.974-3.171-4.558-5.917-7.665-7.99-.295-1.712-.247-24.629-.035-28.994 4.178-2.611 6.803-5.96 7.822-8.304l.296-.209a3.71 3.71 0 0 1 .656-1.4l.093-.54c2.793-5.61 2.389-15.539-1.678-20.911l-.116-.598c-5.824-6.956-12.438-11.929-24.151-9.976-5.895 1.541-9.763 3.674-14.686 9.976l-.11.604c-3.814 5.214-4.733 14.573-1.667 20.899l.087.54c1.845 4.026 4.725 7.43 8.757 9.924.26 2.346.211 24.439.029 29.064-3.24 1.887-5.726 4.797-7.723 7.921l.052.499-.447.064c-3.726 8.546-3.318 13.161 0 21.834l.453.087-.041.505c.993 1.551 2.102 3.037 3.403 4.361l.11.267c12.03 10.429 25.472 7.666 32.658.221l.395-.087.012-.569.43-.052c1.161-1.469 2.334-2.938 3.194-4.616l.261-.128c.88-2.221 4.54-9.807 1.394-18.129l-.04-.633zm-11.753 9.941c-.477 1.018-.951 2.073-1.074 2.909-5.561 7.423-14.685 7.475-18.989-2.903-.104-1.452-.099-2.898-.058-4.332l.377-.035c.093-.743.198-1.469.65-2.073l.07-.621c7.359-9.397 19.917-5.199 19.024 7.055zm.058-67.703l-.343.012c-.11.726-.331 1.411-.674 2.067l-.075.633c-5.048 6.805-12.53 7.066-18.019 0l-.052-.633a3.89 3.89 0 0 1-.662-2.067l-.354-.012c-.073-5.089.491-7.677 4.797-10.894 4.602-2.577 11.032-1.539 13.849 3.397l.285.099c.337 1.039.714 2.085 1.156 3.113.116 1.41.11 2.845.092 4.285zm-1029.025 22.06l.389 2.573a14.74 14.74 0 0 1 .83 1.754l.006.871.65.151-.116 1.022.679.134.017.778 1.347 1.963.174.134c1.19 1.68 3.679 4.272 5.493 5.226l.081.331c1.509.593 1.179.429 2.416 1.382l.819-.052.157.528 2.834.796.052.319c1.214.075 2.427.244 3.589.645 2.906.167 7.266.249 10.011-1.039l.633-.023 2.265-1.156a22.57 22.57 0 0 0 .61-.058c2.374-1.49 5.501-3.367 8.008-6.899l.232-.116a25.14 25.14 0 0 1 1.905-3.095 21.98 21.98 0 0 1 .041-.627l1.156-2.265.023-.633c1.704-3.778 1.325-11.123 0-13.937l-.029-.633c-.383-.761-.749-1.545-1.156-2.265l-.017-.639c-1.062-1.415-.696-.796-1.388-2.41l-.47-.087.046-.447-.679-.807-.221-.11c-1.179-1.597-2.619-2.985-4.239-4.123l-.041-.383-.418.006c-2.163-1.427-1.808-1.106-3.908-2.317-.157-.012-.47-.041-.627-.058-.737-.372-1.504-.685-2.247-1.01-.703-.081-1.399-.139-2.096-.174l-.029-.409c-2.799-.134-5.609-.273-8.403.064-1.556.424-3.176.714-4.611 1.498l-.645.093c-.001.001-4.245 2.474-4.245 2.474l-.134.226c-1.829 1.324-3.444 2.938-4.768 4.773l-.18.134-1.341 1.963-.017.772-.465.151-.662 1.382-.122.621a9.27 9.27 0 0 0-1.202 4.338l-.36.017c-.174 2.869-.18 5.743 0 8.617l.373.036zm12.358-6.37h.343a15.35 15.35 0 0 1 .79-2.927l.575-.076-.076-.976.691-.023-.104-.674.441.035.743-.755.035-.25c2.042-1.361 2.237-1.746 4.628-2.061v-.354h4.071l.006.348c2.215.357 1.915.48 3.966 1.469l.041.499.662-.099-.023.447.755.755.453-.023-.104.679.691.006-.093.97.587.076a16.55 16.55 0 0 1 .79 2.933l.343.006v4.071h-.354c-.287 2.15-.648 2.174-1.492 3.989l-.273.093-.714.766.052.435-.674-.087.058.662-.668-.105-.029.494a18.4 18.4 0 0 0-1.934 1.005 21.92 21.92 0 0 1-2.032.47l-.012.348c-1.359-.006-2.718-.006-4.076 0l-.006-.337c-.999-.203-1.974-.447-2.927-.796l-.076-.581-.97.087-.012-.691-.674.105.064-.668-.679.099.046-.441-.708-.778-.255-.087c-.708-1.243-1.469-2.509-1.504-3.978l-.36.006-.002-4.086zm-45.242 303.645l-1.365-.662c21.584-9.766 10.091-51.737-20.626-40.951l-.331.546c-2.825-.34 3.318 3.065-37.11-21.193v28.079l23.278 14.134c.325 8.002 4.657 15.882 11.811 19.715.398 2.449.267-5.265.267 118.688l-35.356 21.245v27.942l.004.29 59.428-35.761v-132.072zm-3.479-16.26l-.743.215.151.778c-.9 1.016-1.835 2.015-2.683 3.089-.145.029-.424.093-.563.122-1.022.761-2.224 1.185-3.403 1.643-1.632.122-3.269.093-4.895 0a30.3 30.3 0 0 0-2.189-1.144l-.784.035-.035-.691-.691.122.11-.505-.813-.714-.494.116.099-.679-.668.035.139-.685-.72-.012.046-.772-1.161-2.125c-.012-2.195-.621-4.657.557-6.631l.052-.546.668-1.353.348-.081.435-.877c1.78-1.795 2.729-2.219 3.449-2.613l.592-.117c2.021-.993 4.355-.552 6.515-.447 3.463 1.561 1.701.842 4.198 2.439l-.006.453.511-.029c1.409 2.301 1.49 2.263 2.439 4.82-.064 1.765.453 3.774-.575 5.366a21.05 21.05 0 0 1 .114.788zM747.85 1084.75l.134-.18c1.591-1.161 3.06-2.526 4.216-4.129l.261-.081c.103-.168.139-.142 3.008-4.953l.046-.627c1.473-3.251 2.031-5.738 1.597-12.996l-.401-.046-.186-2.096c-.354-.766-.656-1.521-1.028-2.241l-.029-.633-.135-.231a122.65 122.65 0 0 1-8.407 28.825l.924-.612zm345.513 80.943l-.43-.017-.099-2.317-.366-.035c-.966-3.564.039-.508-2.021-5.22l-.255-.151c-.604-1.21-1.885-3.014-3.171-4.018l.041-.459-.459.012c-2.391-2.852-7.363-5.514-10.586-5.952l-.046-.285c-3.441-.125-5.291-1.483-12.566.575-.743.308-1.458.639-2.172.981h-.801l-.168.697-1.005-.139-.029.65-.505-.023c-1.177.751-.719.4-3.49 2.503l-.076.441-.627-.029.023.453-.755.714-.232.087c-.621.801-1.272 1.579-1.928 2.358v.476l-.61.076-.023.755c-.639.72-1.063 1.579-1.324 2.509l-.337.163c-2.979 9.647-2.409 18.42 5.064 25.725l.075.389.604-.006.012.621.621-.058.035.447c.767.488 1.527 1.005 2.34 1.481.338 1.903.082 136.085.081 136.666-1.116.657-2.631 1.756-3.809 3.066l-.418.006v.598l-.61.012.081.645-.459-.017c-.592.662-.964 1.481-1.51 2.189l-.215.116-1.312 2.038.081.703-.778.279.134.703c-2.514 3.641-3.44 16.072 2.787 23.083l.058.331c9.415 10.232 19.747 11.656 33.03 3.455l.064-.424.61.017.017-.412.726-.743.43.035-.023-.639h.645l-.105-.651.435.023c.907-1.394 3.044-3.819 3.815-6.87.134-.047.401-.128.529-.168l-.157-.79c.46-.625 2.857-6.293-1.243-17.636l-.476-.134.006-.801c-7.393-10.068-7.973-6.078-7.944-9.843l.343-135.011.505-.006 1.225-.772.035-.476.505.07c1.005-1.028 2.044-2.021 3.06-3.037l-.07-.505.441-.029a514.13 514.13 0 0 0 2.48-3.658l-.041-.836.674-.151-.029-.79c2.169-4.103 1.848-9.048 1.668-13.04zm-13.304 182.756c-1.752 3.226-4.034 6.69-8.652 6.707l-.081.406c-1.887-.314-3.792-.558-5.581-1.231-1.028-.767-2.015-1.568-2.967-2.387-.65-.987-1.295-1.98-1.887-2.973l-.029-.668c-2.049-4.638.458-8.659 4.332-11.933l.848.07.163-.54c7.675-2.591 14.782 1.386 13.854 12.549zm.546-176.397l-.36.017c-.087.72-.314 1.394-.679 2.021l-.07.679c-.993 1.208-1.98 2.45-3.298 3.327l-.134.389-.459-.006c-.737.308-1.399.738-2.102 1.086-2.079.255-4.169.192-6.237.006l-.052-.343-2.282-.854c-1.237-1.132-2.404-2.328-3.42-3.641l-.07-.627c-2.514-4.754-.388-10.2 3.745-12.979 4.305-2.488 11.19-2.604 15.348 6.533.087 1.453.081 2.922.07 4.392z"/><path d="M257.006 1304.415l.54.017c.842.575 1.887.726 2.845 1.086l1.545.047.058.459c5.2.013 3.528.683 11.463-1.109l.105-.285c1.092-.296 2.16-.714 3.112-1.336l.784-.023.07-.453 2.329-1.388.11-.25c3.126-2.277 4.813-5.097 5.743-6.271l-.023-.807.656-.047-.023-.459c.758-1.585 2.258-4.657 2.381-8.182.784-2.439.039-3.567-.227-7.625l-.406-.023-.145-1.562c-.441-1.04-.848-2.056-1.185-3.107l-.528-.075.18-1.022-.755-.134.046-.836c-.714-.796-1.341-1.643-1.91-2.52l-.447-.017.105-.645-.436-.093c-.61-.999-1.51-1.76-2.462-2.387l-.035-.441-.662.128-.006-.708c-.25.017-.743.041-.993.052l-.047-.674-.691.116c-.62-2.34-.488-70.909.017-72.43 1.922-1.243 3.502-2.938 4.86-4.762l.215-.145c1.19-2.139.491-.268 2.108-3.891l.447-.168-.006-.819c.761-1.336 1.161-2.828 1.237-4.349l.354-.017c.239-9.904.091-7.264-1.196-12.642-.128-.047-.377-.134-.499-.174l.058-.842c-1.158-1.906-2.865-5.854-7.485-9.152l-.134-.209c-1.543-.894-1.384-1.116-3.896-2.108l-.168-.459-.813.023c-4.567-2.125-7.911-1.814-13.002-1.591l-.035.401a25.79 25.79 0 0 0-2.125.18c-.737.337-1.492.656-2.218 1.033l-.83-.046-.163.662-.825-.023c-.755.534-1.556.976-2.387 1.4-.041.11-.116.337-.157.453l-.604-.11-.041.395c-1.749 1.201-4.268 3.671-5.261 5.517l-.279.07c-.406.819-.854 1.638-1.394 2.398l.023.825-.685.168.168 1.016-.528.168c-1.444 5.235-2.322 10.983.377 17.026l.087.627c1.165 1.98 2.888 5.744 6.812 8.589l.099.221.825.668c.394.169.057.009 1.893.947l.662 1.039.046 69.381c-1.217 1.664-4.91 3.255-7.578 8.211l-.267.151c-2.017 4.413-2.784 6.417-3.095 11.271-2.031 1.203-54.764 30.723-55.538 35.08-1.29 1.489.134 1.717-.598 88.556-3.272 1.913-5.695 4.777-7.746 7.938l.035.523-.604.058-.023.784c-2.708 4.572-2.863 11.058-1.585 16.532l.261.035c.965 3.963 3.218 7.38 5.342 9.419l.087.401.395.093c8.509 8.9 23.972 8.668 32.281 0l.395-.087.012-.569.43-.058c6.863-8.673 7.465-17.769 4.837-22.868l-.023-.633-1.173-2.259v-.796l-.61-.058.029-.517c-1.998-3.141-4.506-6.039-7.746-7.938l.186-77.018 16.968-10.139c3.594-.415 26.003-17.388 28.68-14.808zM208.913 1427.9c-.325.743-.621 1.55-1.028 2.294l-.006.563c-4.849 6.429-11.884 7.417-17.961.041l-.087-.633-.999-2.259c-.07-1.463-.07-2.909-.041-4.349l.354-.047a4.46 4.46 0 0 1 .662-2.05l.087-.633c4.791-6.851 13.145-6.886 17.972.006l.064.627a4.22 4.22 0 0 1 .674 2.05l.36.047c.025 1.433.036 2.885-.051 4.343zm45.48-254.095v-4.065l.343-.017c.168-1.016.441-1.969.79-2.915l.581-.087-.087-.97.691-.012-.104-.674.668.058-.093-.668.435.041.784-.708.081-.255c1.243-.703 2.491-1.481 3.972-1.504l.006-.36h4.065l.012.348c1.729.235 2.197.557 3.966 1.481l.041.494.668-.104-.023.441.755.755.447-.017-.105.674.691.012-.087.976.65.081.041.441c.389.778.557 1.591.656 2.485l.366-.006v4.077l-.354.006c-.216 1.7-.553 1.993-1.458 3.972l-.505.029.099.668-.447-.023-.732.761-.081.285c-.987.627-1.986 1.243-3.002 1.829l-1.591.104v.447l-4.071-.006-.006-.343c-1.005-.197-1.98-.441-2.932-.79l-.076-.587-.964.093-.017-.691-.674.099.023-.447-.755-.755-.447.023.093-.674-.505-.017c-.877-1.937-1.224-2.203-1.452-3.978l-.356-.007zm2.317 104.583l.592-.145-.134-.993.726-.006-.134-.685.662.035-.099-.679.476.104.796-.737.017-.546.981.099.07-.72.668.226.012-.459 1.934-.703c1.603-.209 3.223-.168 4.831-.046 2.955 1.102 4.528 1.858 6.173 4.506l.499.168-.134 1.005.54.122c.674 1.992.807 4.1.627 6.208-.982 2.612-.958 2.373-2.439 4.814l-.505-.035.012.447c-.708.441-3.496 2.096-4.204 2.45-2.16.081-4.512.552-6.515-.47l-.569-.116-1.341-.697c-.106-.128-1.658-1.421-2.137-1.899l-.43-.871-.308-.07c-.793-1.709-2.598-4.709-.667-10.307zm533.287-26.224l.633.075 2.241 1.01 2.09.18.052.401a70.08 70.08 0 0 0 8.623.006l.023-.406 2.108-.18 2.236-1.016.639-.058 4.942-2.99.087-.261a16.21 16.21 0 0 0 3.571-3.56l.261-.093c.591-1.014 1.333-2.05 1.818-2.631l.11-.598c1.632-2.679 1.333-3.026 2.125-4.611l.192-2.079.401-.023.151-6.01 23.141-13.431c5.701 1.56 2.195 2.243 14.552 2.543l-.006-.395c.865-.104 1.765-.163 2.66-.238.952-.48 3.328-1.34 4.338-1.69l.076-.54.79.041c.65-.476 1.33-.906 2.015-1.33l.104-.209c4.218-2.863 6.469-7.125 7.416-8.571l.099-.645c4.676-8.982 2.467-22.38-11.341-30.452-2.736-.489-2.308-2.478-14.773-1.643l-.04.47-1.794.029-.029.389c-.726.07-1.388.302-1.98.708l-.61.046-4.86 3.06-.07.209c-1.981 1.469-2.098 1.7-3.084 3.031l-.221.11a79.17 79.17 0 0 1-1.876 2.532c-.035.157-.093.47-.128.621-1.388 1.858-1.922 4.152-2.671 6.312-1.565 6.512 5.655.416-25.133 18.635-10.339-3.802-10.374-2.657-17.397-1.922l-.035.325c-.993.186-1.939.476-2.886.772l-.093.325c-2.46.765-4.155 2.318-6.202 3.885l-.058.441-.65-.058.087.447-.778.749-.232.029c-10.971 14.686-5.81 29.491 9.366 38.259zm61.536-65.659l.615.052c.859-1.423 2.938.279 3.856-1.138.877-.017 1.765-.006 2.665.029.732.348 1.469.639 2.224 1.022l.563.11 1.266.79.128.267.802.563c.813 1.016 1.585 2.079 2.247 3.229l.023.621c1.243 2.851.592 6.231-.813 8.931l-.488.116.099.645-.465.041a2.3 2.3 0 0 1-1.266 1.248l-.017.494-.691-.139-.041.726-.755-.052c-.743.354-1.44.761-2.154 1.144-4.365.174-6.549.734-10.609-3.293l-.441-.836-.308-.128c-.406-.999-.825-1.98-1.254-2.932-.603-5.359.115-7.851 4.814-11.51zm-62.326 42.455h.366a5.02 5.02 0 0 1 1.243-3.211l.058-.766.656-.017-.104-.668.662.064-.087-.668.459.041.795-.72.047-.482.964.081.087-.581c.947-.349 1.905-.639 2.915-.796l.012-.337c1.614.093 3.426-.366 4.907.499l.691.006c6.438 3.695 7.329 11.188-.017 16.863l-.639.052c-.755.314-1.498.645-2.213 1.028-1.434.052-2.863.058-4.28-.029-2.315-1.003-4.623-1.065-6.469-6.515-.065-1.289-.065-2.572-.053-3.844zm-630.094 125.104l-1.173-2.259.006-.766-.476-.099c-1.868-3.984-4.492-6.06-7.764-8.478-.308-1.167-.175-79.577-.174-80.159-.293-1.286 31.903-19.651 32.484-19.976 8.95 4.083 17.881 2.568 22.676-1.115l.737-.041.099-.633.633.081.087-.418c1.835-1.254 3.281-2.962 4.762-4.599l.441-.883.308-.081c.698-1.535.395-1.022 1.394-2.393l-.041-.877.639-.099v-.865c.761-1.336 1.167-2.828 1.225-4.349l.354-.012c.555-13.776-3.033-18.5-12.363-24.917l-.825.046-.163-.668-.807.023c-2.418-1.217-3.618-1.161-4.425-1.179l-.017-.418c-2.665-.163-5.331-.163-7.996-.058l-.012.406c-1.621.08-2.442.087-4.913 1.243l-.801-.012-.174.662-.819-.052c-3.464 2.388-6.813 3.83-10.673 11.353l-.041.528c-.401.726-.708 1.486-1.045 2.276l-.186 2.091-.401.035-.157 3.833-43.506 26.23c-.482.668-.226 1.603-.383 2.416l-.465.883-.122 91.721c-3.603 2.136-6.083 5.264-8.228 8.728-.129.581-7.559 14.943 3.891 26.584l.116.273c12.467 10.39 25.605 7.533 32.647.215l.401-.087.012-.569.441-.058c5.348-6.787 8.193-15.492 4.843-22.862l-.046-.645zm22.693-134.976h.343c.168-1.028.441-1.98.79-2.933l.586-.075-.093-.97.691-.012-.104-.674.668.064-.099-.674.441.041c.197-.174.587-.534.778-.708l.093-.244c1.326-.77 2.262-1.406 3.972-1.516v-.36h4.071l.006.349c1.772.224 2.173.585 3.972 1.469l.029.499.668-.104-.023.453.761.755.441-.023-.099.674.691.017-.087.964.581.087c.343.947.61 1.893.79 2.915l.343.012v4.071h-.354c-.145.68-.279 1.376-.389 2.085l-.871 1.121c-.023.197-.058.598-.076.801l-.418.058-.72.79.046.441-.679-.116.093.668-.668-.11-.087.465-1.307.755-.563.139c-.639.354-1.324.563-2.067.621l-.012.354c-1.359-.006-2.712-.006-4.071 0l-.006-.343c-1.005-.203-1.98-.441-2.932-.796l-.07-.581-.976.099-.017-.697-.674.099.064-.662-.679.099.093-.482-.761-.587c-.842-1.289-1.748-2.613-1.748-4.216l-.36.006-.001-4.088zm-34.417 145.127l-.337.052c-.087.714-.308 1.394-.674 2.038l-.093.621c-5.865 7.838-15.127 6.921-18.983-2.915-1.171-12.554 12.501-16.16 19.006-7.061l.093.633c1.249 2.574 1.068 3.838.988 6.632zm824.841 167.873c-.371-5.766-5.158-12.428-10.22-15.377l-.592-88.556c-1.6-5.958-79.083-47.699-79.05-50.137l.087-80.24c3.525-2.05 6.115-5.296 8.24-8.705l.134-.615c.981-1.881 1.742-3.914 1.841-6.051h.354c.134-2.724.134-5.441-.006-8.153l-.43.012c-.047-.79-.081-1.562-.099-2.317l-.366-.029c-.168-.685-.319-1.347-.441-2.003-1.406-2.609-1.765-4.185-4.907-7.433l-.081-.395-.389-.087c-6.577-6.879-17.443-8.512-26.12-4.448-3.435 1.793-5.187 3.487-6.545 4.662l-.029.43-.43.058c-1.479 1.924-4.005 4.635-4.982 9.21l-.366.029c-.046.755-.075 1.527-.099 2.323l-.43-.012c-.366 4.814-.209 9.889 2.207 14.215l.099.592c2.143 3.403 4.721 6.666 8.257 8.716l.592 92.621c1.255 5.129 72.043 44.276 79.015 49.626l-.058 76.687c-8.968 5.252-10.782 13.541-10.528 23.826l-45.294 25.998-.168-.598c-1.132-.354-2.282-.72-3.449-.859l-.012-.354c-1.341-.099-2.677-.203-4.001-.232l-.046-.418c-3.288.18-8.007.581-10.708 2.23l-.633.041c-3.29 2.13-.19-.204-4.837 3.078l.011.5-.546-.157c-.54.528-1.005 1.15-1.475 1.754l-.447-.006.081.662-.662-.041.139.668-.476-.006c-4.921 7.543-5.259 10.441-4.744 19.134l.401.006c.229 2.867.347 1.831.871 4.018l.505.041-.11.859s1.122 1.984 3.072 4.86h.459l-.151.668.453.087c.819.999 1.73 1.928 2.694 2.822l.534-.087-.11.685.679-.168.075.743.703-.075 1.37.801.075.302c8.742 3.821 10.039 2.759 14.465 2.869l.041-.441c.772-.041 1.556-.064 2.352-.058v-.377c1.144-.215 2.282-.528 3.415-.836l.128-.523.83.029c1.423-.832 2.431-1.509 2.787-1.719l.436.017.058-.424c.708-.523 1.475-.964 2.131-1.556l.041-.43.656.093-.099-.674.465.064.784-.761-.041-.285c1.81-1.698 2.755-3.737 4.088-6.173.214-1.44 2.063-4.611 1.719-9.541 3.711-2.329 46.786-27.113 48.296-27.949 3.326-.738 10.249 3.644 21.939-5.964l.058-.436.563-.012.081-.406c5.941-5.744 6.36-11.838 6.248-19.895l-.352-.017zm-91.982-251.487l-.354.047c-.07.732-.29 1.411-.668 2.05l-.076.627c-6.26 7.696-13.445 6.222-17.978 0l-.07-.627c-.401-.639-.621-1.318-.674-2.05l-.343-.047c-.095-5.25.726-8.78 5.836-11.492 6.32-2.428 10.346.453 13.24 4.286l.006.575c.401.72.685 1.492 1.028 2.288.076 1.434.07 2.885.053 4.343zm.192 311.6l-.116.651c-1.01 1.202-1.951 2.567-3.368 3.339l-.076.453-.679-.203.012.476c-.662.186-1.307.418-1.922.708-2.294.139-4.924.685-6.991-.552l-.796.047-.035-.424c-1.725-.883-2.921-2.427-4.111-3.885l-.064-.633-.987-2.276c-.252-3.899.108-4.01 1.179-7.137l.505-.116-.134-.645.43-.046c.627-1.214 1.789-1.98 2.782-2.851h.616c.697-.43 1.44-.767 2.166-1.144 4.858-.467 8.622.476 11.103 4.657l.459.052-.075.801c.395.714.708 1.463 1.068 2.247.131 2.184.235 4.524-.966 6.481zm79.299-53.975c-.424.947-.79 1.934-1.144 2.927-4.341 6.187-11.86 7.725-17.839-.023l-.093-.627-.987-2.265c-.308-2.45-.017-4.907 1.138-7.102 1.905-2.95 5.075-5.058 8.664-5.128.099.61-.412 1.928.732 1.62.679-.11.139-1.144.343-1.603 3.409.261 6.237 2.422 8.147 5.139l.087.627c1.151 2.4 1.147 3.718.952 6.435zm-107.277-47.867v.406l7.52-.006.012-.401 2.131-.174c1.324-.499 2.7-.912 3.955-1.597l.627-.104c3.266-2.25 5.624-2.912 10.122-10.081l-.023-.819.65-.151-.006-.813c.697-1.359 1.103-2.834 1.26-4.332l.337-.081a70.71 70.71 0 0 0 .017-8.6l-.43-.035-.11-2.3-.372-.017c-.052-.772-.285-1.458-.697-2.056l.064-.784-.465-.174c-2.856-8.348-16.405-18.079-31.294-10.923-5.355-2.865-27.174-16.095-30.423-17.984-2.437-1.995-2.76 9.101-1.986-82.192 3.234-1.916 5.749-4.808 7.747-7.944l-.029-.523.61-.052.012-.79c2.45-4.314 2.578-9.401 2.224-14.221l-.43.012c-.047-.79-.081-1.562-.099-2.317l-.366-.035a48.16 48.16 0 0 1-.447-2.003c-1.746-3.404-2.26-4.727-4.901-7.421l-.081-.401-.389-.093c-7.059-7.197-18.057-8.467-26.613-4.193-3.008 1.626-4.798 3.332-6.045 4.413l-.035.43-.43.058c-1.037 1.338-3.915 4.405-4.982 9.21l-.366.029-.099 2.311-.43.023c-.134 2.514-.139 5.04-.058 7.572l.418.023.168 2.845.447.017.157 1.545c.591 1.213 2.967 7.731 9.425 11.498l.598 92.621c.128.772-.07 1.672.366 2.41l43.523 26.23c.029 1.26.099 2.538.157 3.827l.401.046c.046.68.104 1.382.18 2.102l1.034 2.236-.023.819.465.168c2.77 6.15 6.5 8.401 10.284 10.9l.621.075c3.146 1.521 1.699.722 3.99 1.609l2.107.182zm-41.317-160.399l-.354.047c-.07.732-.296 1.411-.674 2.05l-.07.627c-6.266 7.737-13.431 6.218-17.978 0l-.075-.627a4.33 4.33 0 0 1-.668-2.05l-.343-.041c-.113-5.194.717-8.788 5.848-11.504 6.116-2.328 10.223.273 13.188 4.256.086.581-.027.486 1.086 2.892.058 1.435.064 2.887.04 4.35zm38.471 146.335l-.679.104.058-.668-.668.099.035-.441-.708-.784-.255-.07c-.703-1.254-1.463-2.52-1.498-3.99l-.36.006v-4.088l.366.006c.07-.906.255-1.719.656-2.497l.035-.424.656-.087-.087-.976.691-.012-.105-.674.447.023.761-.761-.023-.447.674.104.012-.697.97.099.075-.587c.952-.354 1.911-.65 2.927-.79l.012-.343h4.082v.36c1.19.023 2.288.47 3.211 1.237l.761.064.023.662.668-.11-.017.447.755.761.447-.029-.11.674.697.023-.087.964.581.087c.348.947.598 1.893.79 2.921h.343v4.077l-.366.006c-.16 1.713-.587 2.019-1.446 3.972l-.505.029.099.668-.447-.017-.761.749.035.453-.674-.104-.035.494c-2.08.93-1.698 1.104-3.966 1.469l-.006.354c-1.365-.012-2.724-.012-4.071 0l-.006-.343c-1.022-.203-1.98-.436-2.932-.79l-.076-.587-.97.093-.009-.689zm-826.641-74.37c28.568-7.992 19.896-46.377-5.073-45.634v13.104c.94.002 1.879.049 2.814.163 2.167.934 2.418 1.075 4.808 2.991l-.035.528.47.012.836 1.301c-.012.198-.023.598-.029.796l.494.139c.79 2.149.825 4.471.488 6.73-.401.848-.766 1.707-1.132 2.602l-.517.064.058.947-.685.035.093.673-.435-.058-.807.755-.035.505-.97-.093-.064.563c-1.663.928-3.494 1.273-5.352 1.307v12.873c1.701-.005 3.405-.13 5.073-.303zm727.314 5.917l-.11-1.579-1.08-2.207.099-.813-.732-.139.139-1.045-.726-.099.023-.859c-.691-.801-1.324-1.62-1.881-2.485l-.226-.116c-1.81-2.587-5.63-5.476-8.815-6.533l-.116-.285c-4.156-1.093-3.354-1.331-7.479-1.399l-.076-.447c-2.056.215-4.1.517-6.155.685-1.744.63-4.477 1.07-7.485 3.333-.192.006-.575.012-.766.012l-.029.674-.668-.128-.047.406c-1.92 1.372-4.654 4.111-5.818 6.626l-.319.104c-1.273 2.643-2.374 5.104-2.561 8.025l-.366.047-.116 3.188c-5.324 3.177-54.469 30.457-55.567 35.091-1.254 1.416.023 21.659-.61 88.568-4.413 2.599-6.847 6.564-8.252 8.74l-.047.528c-3.904 7.276-3.487 18.279 3.995 26.009l.081.401.395.087c8.475 8.838 23.681 8.869 32.281 0l.389-.087.081-.401c8.542-8.945 7.082-20.568 4.047-25.969l-.139-.592c-2.261-3.561-4.446-6.501-8.228-8.728l.18-77.006c.582-.361 15.968-9.87 17.403-10.046 30.663-17.817 23.901-16.816 31.596-13.809.703.035 1.417.087 2.143.157l.006.395c2.276.058 4.558.058 6.846-.006l.052-.441c.761-.041 1.539-.07 2.323-.07l-.006-.377c2.827-.575 1.85-.589 4.599-1.487l.134-.261c1.173-.61 2.294-1.312 3.409-2.015l.116-.238c1.609-1.173 3.002-2.613 4.181-4.21l.18-.11c.412-.68.877-1.318 1.347-1.94l.029-.836.645-.075.058-.825c2.752-4.244 2.478-10.364 2.073-15.383l-.43-.03zm-79.143 150.133c-.349.738-.61 1.556-1.04 2.288l.006.575c-5.856 7.738-14.712 6.993-19.035-2.869a34.06 34.06 0 0 1-.023-4.152 46.44 46.44 0 0 1 .987-2.271l.081-.639c4.797-6.863 13.142-6.897 17.978 0l.07.627c.383.604.61 1.289.674 2.05l.354.041c.018 1.441.029 2.887-.052 4.35zm66.878-142.746c-.977 2.48.045.742-2.41 4.802l-.505-.035v.453c-.714.435-3.502 2.085-4.21 2.445-7.217.273-4.594-.095-7.079-.592l-1.353-.685-.058-.47-.674.139-.035-.482c-.616-.255-1.034-.685-1.243-1.283l-.494-.017.116-.662-.72-.075.035-.703c-1.87-2.828-1.481-6.568-.436-9.622l.581-.122-.145-.987.738-.017-.145-.685.668.041-.099-.679.47.093.801-.743.041-.563.952.163.07-.761.656.261.023-.482c.633-.244 1.277-.476 1.928-.703 1.603-.209 3.229-.168 4.849-.052 1.394.546 2.781 1.15 4.105 1.899l.046.453.447.075a43.38 43.38 0 0 0 2.021 2.416l-.093.83.54.122c.688 2 .821 4.114.612 6.228zm454.957 74.178c10.552-3.696 17.219-10.476 17.641-21.602l38.15-21.994v-28.268l-50.182 29.032c-38.984-17.561-47.994 49.992-5.609 42.832zm3.066-16.666l-.505.064.128.668-.662-.052.11.679-.459-.087-.813.743-.035.285-1.318.807-.778-.046-.087.453c-.662.186-1.301.395-1.928.633-8.218.652-13.047-4.263-11.951-12.537l1.26-2.938.476-.093-.128-.674.679.058-.134-.679.459.064.836-.685-.122-.517.703.122.023-.703 1.005.104.151-.732.79.087c8.372-4.107 17.786 5.915 12.3 14.976zm-167.136 28.866c-1.12-1.521-3.427-5.861-8.252-8.705-1.063-39.708-1.174-23.242 8.263-37.716l.128-.639c2.392-4.326 2.532-9.39 2.16-14.198l-.343-.006c-.134-1.388-.47-2.706-.842-4.018l-.279-.122c-.383-1.353-1.016-2.613-1.864-3.705-.023-.151-.075-.447-.104-.598-7.54-9.735-17.124-12.321-26.909-9.181-7.566 2.838-10.425 6.813-13.722 12.636l-.07.61a4.14 4.14 0 0 0-.65 2.038l-.273.035c-2.461 10.318 1.39 15.775 1.643 17.148 2.405 3.608 3.71 5.92 8.217 8.676.217 2.654.243 25.29-.006 29.11-3.246 1.853-5.714 4.773-7.677 7.898l.023.482-.435.087c-2.965 7.377-2.581 7.777-2.41 14.988l.43-.012c.017.755.052 1.527.104 2.323l.36.035c.852 3.781 3.186 7.349 5.342 9.419l.104.273c12.788 11.086 28.944 9.437 38.03-7.706a25.75 25.75 0 0 1 .447-1.986l.325-.041c.349-2.923 2.141-8.979-1.655-16.509l-.085-.616zm-10.504 12.822c-.354.726-.668 1.498-.993 2.259l-.087.633c-3.126 5.058-13.543 9.703-18.989-2.898-2.13-14.735 20.803-17.808 20.069.006zm-19.059-65.009l-.052-.633c-.424-.633-.645-1.324-.662-2.062l-.36-.023c-.25-4.172.427-5.677 1.794-8.083l.226-.145c.766-1.045 1.73-1.911 2.782-2.654 4.56-2.561 10.981-1.586 13.855 3.397l.285.087c.343 1.034.674 2.102 1.15 3.113 1.096 12.504-12.036 16.13-19.018 7.003zm-789.227 144.738c-1.718-4.969 9.397 4.52-77.47-48.482-.958-.479-.475-76.536-.47-77.122 24.534-14.804 3.999-51.646-21.108-40.736-17.323 7.059-19.11 31.116-3.449 40.736.568 78.492-.924 89.794 1.33 91.175l77.134 46.903.019 16.024h24.4c.038-28.861.076-27.139-.386-28.498zm-80.171-143.025c-.331.732-.592 1.545-1.016 2.27l-.006.732-.441.203c-4.972 7.093-13.843 6.09-17.845-.906l-.476-2.062-.343-.041c-.046-1.452-.041-2.886.064-4.309.47-.958.749-1.992 1.138-2.962 4.079-6.021 12.046-7.539 17.839.023.017.157.064.47.087.627l.999 2.265c.064 1.373.082 2.761 0 4.16z"/><path d="M749.737 1479.843l-.18-2.108-1.016-2.236-.035-.645c-.947-1.479-.603-.84-1.272-2.497l-.476-.047.023-.494c-1.608-2.386-3.565-4.558-5.772-6.115l-.116-.215c-.001 0-4.256-2.491-4.256-2.491l-.639-.035-2.247-1.022-2.096-.174-.023-.406c-2.88-.192-5.766-.192-8.641 0l-.023.401-2.102.18-2.241 1.028-.639.023-4.256 2.491-.116.221a20.87 20.87 0 0 0-4.785 4.779l-.215.116c0 .001-2.485 4.268-2.485 4.268l-.046.633c-.377.72-.697 1.463-1.016 2.247l-.18 2.09-.401.023a67.88 67.88 0 0 0-.006 8.629l.401.047.186 2.09 1.022 2.253.029.633c.862 1.373.637.906 1.283 2.48l.285.11c3.389 5.987 8.463 8.155 10.302 9.274l.61.052c.627.348 1.307.575 2.038.685l.035.36c.755.017 1.521.058 2.299.116l.018.424c2.88.174 5.766.18 8.652 0l.017-.424a41.94 41.94 0 0 1 2.3-.116l.035-.366a5.81 5.81 0 0 0 2.038-.685l.61-.047 4.262-2.491.116-.215c1.597-1.161 3.049-2.532 4.222-4.117l.255-.099 3.014-4.942.023-.639c.366-.743.679-1.516 1.028-2.242l.18-2.096.406-.023c.174-2.892.174-5.778 0-8.652l-.409-.014zm-12.322 6.387l-.36-.006c-.023 1.597-.9 2.921-1.748 4.21-.192.145-.563.441-.749.586l.07.482-.674-.087.064.662-.662-.11-.041.499c-2.254.989-1.428 1.02-3.96 1.475l-.012.348c-1.365-.006-2.718-.012-4.071 0l-.006-.36a5.36 5.36 0 0 1-3.211-1.243l-.767-.058-.017-.656-.668.104.023-.453c-.186-.192-.563-.563-.755-.755l-.447.023.099-.662-.494-.041c-.94-1.879-1.247-2.23-1.469-3.966l-.354-.012v-4.065l.366-.006c.029-1.225.465-2.305 1.237-3.217.017-.186.041-.569.052-.761l.662-.012-.099-.674.662.058-.093-.668.436.041.784-.708.075-.255c1.243-.708 2.497-1.481 3.978-1.51l.012-.354h4.065l.011.348c1.868.272 2.073.52 3.966 1.475l.029.494.668-.104-.023.453c.186.192.563.563.755.755l.453-.023-.104.674.691.012-.087.976.581.064c.372.947.615 1.905.778 2.938h.354v4.089zm-622.127 125.39c-1.993 1.029-1.841.216-32.769-18.06-1.559-.584-.864-80.873-.859-81.454 8.687-5.238 12.775-16.515 9.814-26.166-5.481-17.354-26.741-21.045-37.884-10.029-10.862 9.948-9.252 28.389 3.519 36.189l.071 64.479c22.496 24.025 53.043 40.416 87.343 44.859-5.69-10.406-18.288-14.352-29.235-9.818zm-35.823-116.737l-.354.041a4.6 4.6 0 0 1-.668 2.05l-.07.627c-6.223 7.684-13.373 6.292-17.978-.006l-.064-.621c-.406-.633-.633-1.318-.674-2.056l-.354-.035c-.07-2.265-.279-4.675 1.051-6.637l.041-.581c5.322-7.136 14.528-7.825 19.006 2.898.105 1.422.105 2.868.064 4.32zm334.933 117.59l.041-28.919c6.661-3.989 10.842-11.713 10.743-19.453 6.081-3.764 36.379-20.285 57.065-32.954 22.72-13.098 19.282-11.998 22.937-10.673 12.431 5.201 26.896-2.563 30.405-14.831 4.88-15.257-8.39-33.223-27.763-28.924-8.421 2.067-15.856 9.558-17.055 19.047-1.326 4.571 10.352-4.217-78.144 47.309-25.618-13.149-46.948 22.259-24.941 39.081 2.422 1.944 2.828-2.369 2.16 30.324a22.13 22.13 0 0 0-8.809 10.176h17.099c2.483-.996 5.337-.987 7.835 0h17.21c-1.923-4.337-5.092-7.924-8.783-10.183zm93.59-121.8l.151-.476.999.099.134-.65 1.672-.041.023-.505c2.474-.093 5.168-.348 7.323 1.161a19.51 19.51 0 0 1 .587.041c1.028.825 2.027 1.719 2.793 2.822l.261.151c3.482 6.831.714 11.694-2.102 13.519l-.035.418-.668-.087-.064.738-.917-.215-.273.796-.761-.145c-1.922 1.202-4.373.563-6.51.505-2.496-1.248-2.568-.708-6.063-4.785l.116-.883-.552-.099c-1.83-5.643.296-10.192 3.886-12.364zm-99.02 79.886l-.801.552-.093.285-1.272.825a36.2 36.2 0 0 1-.801-.012l-.163.738-1.016-.285-.134.645c-6.981.498-10.265-.912-12.549-7.828-.041-.999-.076-1.98-.046-2.938 5.351-16.923 27.331-5.718 16.875 8.018zm819.877-59.167c-.915 11.761 3.322 18.328 8.642 22.041a144.38 144.38 0 0 0 5.053-14.043c-1.971-6.235-.008-10.364 3.191-12.512a145.05 145.05 0 0 0 2.252-14.507c-8.389 1.365-16.491 7.331-19.138 19.021zm-82.523-4.611l-1.15-2.265-.058-.621-2.427-3.78-.255-.093c-1.064-1.477-3.284-3.703-4.93-4.57l-.087-.319c-1.52-.652-1.081-.384-2.398-1.365l-.633-.093c-5.032-2.621-8.839-2.207-12.717-2.311l.255.424c-1.487.134-3.066-.017-4.384.761l-.633.017c-.767.377-1.55.714-2.271 1.156l-.627.029c-1.261.946-.887.757-2.422 1.376l-.07.476-.459-.064c-.197.174-.598.511-.796.679l-.122.226c-1.509 1.093-3.502 3.113-4.576 4.953l-.314.081c-.671 1.606-.378 1.067-1.376 2.398-.006.157-.023.476-.035.639-.43.708-.772 1.498-1.15 2.265l-.023.633c-1.6 3.481-1.48 10.582-.012 13.931l.041.645c.372.749.714 1.486 1.138 2.259.023.151.058.459.081.61 1.233 1.927 2.848 4.983 6.225 7.45l.104.226.813.674.453-.041.087.465c1.561.681.99.317 2.41 1.382l.616.047c4.337 2.115 6.746 2.435 12.781 2.276-.081-.093-.238-.284-.319-.383 1.475-.128 3.049.017 4.39-.737l.627-.023c4.128-2.285-.207.7 6.672-3.624l.087-.267a16.21 16.21 0 0 0 3.571-3.56l.232-.11.668-.807-.041-.453.47-.075.534-1.307c.215-.273.633-.83.842-1.103.012-.163.023-.482.029-.639l1.156-2.259.023-.645c1.628-3.626 1.403-10.852-.006-13.931l-.014-.633zm-12.061 9.634c-.157.668-.296 1.353-.406 2.062-.575.842-1.127 1.701-1.638 2.596l-.279.006-.749.743.023.453-.662-.11-.035.499a15.09 15.09 0 0 0-1.934.999c-.679.198-1.359.354-2.038.47l-.006.354a230.18 230.18 0 0 0-4.071 0l-.012-.337c-1.022-.215-1.974-.441-2.921-.796l-.081-.581c-.244.017-.726.064-.97.087l-.006-.691-.679.104.058-.668-.674.099.052-.441-.714-.772-.255-.093c-.703-1.254-1.487-2.509-1.504-3.978l-.36.006v-4.088l.366.006c.064-.906.261-1.713.656-2.485l.041-.436.65-.081-.081-.976.691-.029-.105-.668.453.035.732-.761.058-.261c1.394-.958 2.805-2.067 4.605-2.044v-.36h4.071l.006.349c1.715.235 2.12.511 3.966 1.475l.041.494.662-.099-.023.447.755.755.447-.023-.099.674.691.012-.087.97.581.081c.36.947.592 1.893.79 2.927l.343.012.006 4.065h-.355zm-324.991 94.897l.041-75.392c20.047-11.835 10.697-45.754-16.677-42.019-21.38 3.937-24.793 32.349-7.955 42.019.188 9.431.149 69.25.041 75.397-4.151 2.544-7.446 6.373-9.236 11.338h15.64c3.425-2.657 8.228-2.677 11.673 0h15.725c-1.767-4.642-4.978-8.73-9.252-11.343zm-2.189-92.603l-.325.023c-1.376 5.432-5.28 7.886-10.4 7.979-3.231-.855-4.897-.662-8.368-5.279l-.087-.639c-.389-.65-.604-1.336-.639-2.061l-.354-.017c-.253-14.123 13.194-14.936 18.164-8.222l.383.11-.122.633a26.52 26.52 0 0 1 .679.104l-.029.72c1.214 1.997 1.208 4.378 1.098 6.649zm-67.454 57.279c8.191-4.86 12.929-15.745 9.634-26.149-4.175-18.79-34.849-23.652-43.633-1.254-3.039 14.643 1.707 22.989 9.361 27.403l.118 46.667h24.398l.122-46.667zm-2.23-17.211l-.325.029a36.16 36.16 0 0 1-.836 2.741c-4.933 6.957-12.782 6.86-17.943-.064l-.047-.621a3.86 3.86 0 0 1-.668-2.062l-.354-.017c-.168-2.131.029-4.233.662-6.26l.343-.093c.238-.604.488-1.185.743-1.754l.267-.122c3.986-5.466 12.21-5.344 16.149.006l.383.11-.122.633.691.11-.046.703c1.416 2.459 1.118 4.635 1.103 6.661zm472.023 9.651c13.755-32.547-34.149-47.477-42.658-16.921-2.723 9.483 1.307 20.58 9.878 25.649l.141 25.584a145.93 145.93 0 0 0 24.428-17.977l.07-7.607c3.519-2.033 6.173-5.227 8.141-8.728zm-10.371-8.484l-.319.029-.83 2.735c-5.003 6.958-12.816 6.843-17.955-.058-.012-.157-.041-.47-.058-.627a3.97 3.97 0 0 1-.656-2.062l-.36-.017c-.046-1.452-.035-2.892.087-4.309.55-1.109.373-1.422 1.701-3.78l.232-.139c4.298-5.895 13.263-5.094 16.637.732l.29.093c1.279 4.116 1.231 2.282 1.231 7.403zm-921.689 43.331c8.179-5.099 13.278-15.619 9.39-27.438-6.337-16.451-26.948-19.796-38.07-8.159-10.475 10.241-8.056 28.226 4.123 35.597l.079 19.38h24.392l.086-19.38zm-2.201-17.223l-.354.041c-.064.726-.285 1.411-.668 2.05l-.07.627c-6.09 7.493-13.315 6.401-17.978 0l-.07-.627c-.389-.639-.616-1.324-.668-2.05l-.36-.041c-.035-1.452-.041-2.886.07-4.309 4.236-10.203 13.065-10.7 18.977-2.938l.087.627.999 2.265a63.7 63.7 0 0 1 .035 4.355zm872.487 15.975c13.842-30.684-34.01-47.266-42.815-16.742-3.233 10.71 1.693 21.407 9.674 26.131.143 3.596.155 7.196.142 10.799 8.339-.645 16.48-1.996 24.366-3.988.014-2.279.048-4.558.154-6.834 3.74-2.142 6.481-5.609 8.479-9.366zm-10.731-7.822l-.325.023c-2.122 8.436-12.197 11.156-18.774 2.688l-.064-.633c-.418-.639-.639-1.324-.656-2.067l-.354-.017c-.188-13.07 11.419-15.352 18.176-8.374l.401.923.354.047c1.039 2.335 1.515 4.843 1.242 7.41zm-152.88.307c-14.559 3.271-20.643 16.796-17.97 28.143h13.933c-4.069-6.307-.59-16.384 10.622-15.571l.023.354a3.97 3.97 0 0 1 2.067.656l.633.064c5.745 4.197 6.707 9.625 3.333 14.497h14.569c1.951-12.742-6.45-31.617-27.21-28.143zm-409.644 15.04c-.434 2.129-1.994 7.189-.787 13.103h13.615c-.054-.068-.11-.125-.164-.194l-.052-.627a4.05 4.05 0 0 1-.662-2.062l-.354-.017c-.268-14.86 14.531-14.79 18.646-7.497l.29.093c1.281 3.922 1.255 2.404 1.237 7.398l-.331.017a6.97 6.97 0 0 1-.685 2.062l-.064.633c-.052.069-.107.127-.159.194h13.582c6.365-24.946-32.611-42.393-44.112-13.103z"/></svg>